<svg width="25" height="24" viewBox="0 0 25 24" fill="none" xmlns="http://www.w3.org/2000/svg">
<path d="M8.00115 1.10643C9.83862 0.300626 11.8507 -0.0252401 13.8485 0.159397C15.8464 0.344035 17.7646 1.03313 19.4233 2.16203C18.0518 4.0219 16.3251 5.59129 14.3431 6.77939C12.6773 4.44025 10.5107 2.50219 8.00115 1.10643ZM12.7133 7.64046C10.9942 5.29408 8.71575 3.41472 6.0852 2.17334C3.78738 3.74094 2.11102 6.06367 1.3471 8.73833C2.69404 9.06744 4.07564 9.23357 5.4622 9.23314C7.96626 9.23554 10.4407 8.69203 12.7133 7.64046ZM24.6 11.2511C24.4162 8.21842 23.0731 5.37257 20.8489 3.30289C19.352 5.31603 17.4772 7.01827 15.3293 8.31447C15.9547 9.39773 16.472 10.5399 16.8738 11.7244C19.3903 11.0431 22.0192 10.882 24.6 11.2511ZM17.377 13.4787C17.7149 14.9168 17.8852 16.3891 17.8845 17.8663C17.8833 19.5921 17.6499 21.3099 17.1906 22.9734C19.2064 22.1582 20.9601 20.8058 22.2608 19.0633C23.5615 17.3208 24.3594 15.2549 24.5678 13.0905C22.17 12.7165 19.7206 12.8487 17.377 13.4787ZM15.137 12.2863C14.7694 11.208 14.296 10.1686 13.7237 9.18346C11.1455 10.4207 8.32184 11.0613 5.4622 11.058C3.9549 11.0585 2.45283 10.8809 0.987184 10.529C0.748535 12.4789 0.998394 14.4574 1.71428 16.2867C2.43016 18.116 3.58961 19.7386 5.0883 21.0085C7.29603 17.0003 10.8581 13.9084 15.137 12.2863ZM6.57806 22.0894C9.12219 23.6462 12.1597 24.1866 15.0846 23.603C15.7291 21.759 16.0587 19.8197 16.0596 17.8663C16.0597 16.5823 15.9169 15.3022 15.6339 14.0498C11.7518 15.5618 8.53934 18.4138 6.57806 22.0894Z" fill="#212121"/>
</svg>
