<svg width="29" height="25" viewBox="0 0 29 25" fill="none" xmlns="http://www.w3.org/2000/svg">
<path d="M2.27222 8.25635V18.4708C2.27222 19.418 2.6485 20.3264 3.31828 20.9962C3.98806 21.666 4.89648 22.0422 5.84369 22.0422H23.7011C24.6483 22.0422 25.5567 21.666 26.2265 20.9962C26.8963 20.3264 27.2725 19.418 27.2725 18.4708V8.25635L16.6438 14.7957C16.081 15.142 15.4332 15.3253 14.7724 15.3253C14.1116 15.3253 13.4637 15.142 12.9009 14.7957L2.27222 8.25635Z" fill="#212121"/>
<path d="M27.2725 6.15874V5.97064C27.2725 5.02343 26.8963 4.11501 26.2265 3.44523C25.5567 2.77545 24.6483 2.39917 23.7011 2.39917H5.84369C4.89648 2.39917 3.98806 2.77545 3.31828 3.44523C2.6485 4.11501 2.27222 5.02343 2.27222 5.97064V6.15874L13.8367 13.2755C14.1181 13.4486 14.442 13.5403 14.7724 13.5403C15.1028 13.5403 15.4267 13.4486 15.7081 13.2755L27.2725 6.15874Z" fill="#212121"/>
</svg>
