<svg width="221" height="166" viewBox="0 0 221 166" fill="none" xmlns="http://www.w3.org/2000/svg">
<g opacity="0.3">
<mask id="mask0_1_336" style="mask-type:luminance" maskUnits="userSpaceOnUse" x="0" y="0" width="134" height="135">
<path d="M124.584 0.800905L0 9.89136L9.07114 134.74L133.655 125.65L124.584 0.800905Z" fill="white"/>
</mask>
<g mask="url(#mask0_1_336)">
<path d="M1.13379 25.4974C0.83306 21.3584 2.18537 17.2692 4.89323 14.1294C7.60108 10.9896 11.4427 9.05633 15.5729 8.75496L109.011 1.9371C113.141 1.63573 117.221 2.99092 120.355 5.70454C123.488 8.41817 125.417 12.268 125.718 16.407L130.253 78.8316C130.555 82.9706 129.202 87.0598 126.494 90.1999C123.786 93.3393 119.945 95.2725 115.814 95.5743L96.348 96.9949C95.1391 97.0831 93.9671 97.4519 92.9255 98.0722C91.8839 98.6934 91.0008 99.5484 90.3457 100.57L76.9874 121.415C76.3325 122.437 75.4491 123.293 74.4073 123.913C73.3655 124.533 72.1937 124.903 70.9849 124.991C69.7761 125.079 68.5634 124.884 67.4428 124.421C66.3223 123.958 65.3247 123.24 64.529 122.324L48.2985 103.638C47.5028 102.722 46.5052 102.004 45.3847 101.542C44.2641 101.078 43.0514 100.883 41.8425 100.972L22.3763 102.392C18.246 102.693 14.1656 101.338 11.0324 98.6246C7.89924 95.9113 5.9701 92.0607 5.66938 87.9221L1.13379 25.4974ZM42.3341 53.869C42.1838 51.7995 41.2192 49.8746 39.6526 48.5178C38.086 47.161 36.0458 46.4834 33.9806 46.6341C31.9155 46.7847 29.9948 47.7514 28.6408 49.3213C27.2869 50.8912 26.6108 52.9358 26.7611 55.0054C26.9114 57.0748 27.876 58.9997 29.4426 60.3566C31.0092 61.7133 33.0494 62.3909 35.1145 62.2402C37.1797 62.0896 39.1004 61.123 40.4543 59.553C41.8083 57.9831 42.4845 55.9385 42.3341 53.869ZM73.4801 51.5964C73.3297 49.5269 72.3652 47.602 70.7986 46.2452C69.2321 44.8884 67.1917 44.2107 65.1266 44.3614C63.0616 44.5121 61.1407 45.4788 59.7868 47.0486C58.4329 48.6186 57.7568 50.6632 57.9071 52.7327C58.0575 54.8022 59.022 56.7271 60.5886 58.0839C62.1552 59.4407 64.1955 60.1183 66.2605 59.9676C68.3257 59.8169 70.2465 58.8503 71.6004 57.2804C72.9543 55.7105 73.6305 53.6659 73.4801 51.5964ZM97.4063 57.695C99.4719 57.5443 101.392 56.5777 102.746 55.0078C104.101 53.4379 104.777 51.3933 104.626 49.3238C104.476 47.2542 103.512 45.3294 101.944 43.9726C100.378 42.6157 98.3378 41.9381 96.2722 42.0889C94.2075 42.2396 92.2872 43.2062 90.933 44.7761C89.5788 46.3459 88.9026 48.3905 89.0532 50.4601C89.2038 52.5296 90.1679 54.4545 91.7343 55.8113C93.3015 57.1681 95.3416 57.8456 97.4063 57.695Z" fill="url(#paint0_linear_1_336)"/>
</g>
<mask id="mask1_1_336" style="mask-type:luminance" maskUnits="userSpaceOnUse" x="71" y="16" width="150" height="150">
<path d="M220.507 42.7436L98.4578 16.0911L71.8619 138.4L193.911 165.053L220.507 42.7436Z" fill="white"/>
</mask>
<g mask="url(#mask1_1_336)">
<path d="M112.549 19.4005C114.504 15.7416 117.828 13.0105 121.791 11.8081C125.755 10.6057 130.033 11.0303 133.684 12.9886L216.282 57.2919C219.933 59.2502 222.659 62.5817 223.858 66.5537C225.058 70.5257 224.635 74.8126 222.681 78.4714L193.208 133.654C191.254 137.313 187.929 140.044 183.965 141.247C180.002 142.449 175.724 142.025 172.073 140.066L154.866 130.837C153.797 130.263 152.61 129.947 151.398 129.914C150.187 129.88 148.984 130.129 147.885 130.642L125.475 141.099C124.376 141.612 123.174 141.862 121.962 141.828C120.751 141.795 119.564 141.479 118.495 140.905C117.426 140.332 116.506 139.517 115.806 138.526C115.106 137.535 114.645 136.393 114.462 135.193L110.716 110.706C110.532 109.505 110.072 108.364 109.372 107.372C108.672 106.381 107.751 105.566 106.682 104.993L89.475 95.7632C85.8235 93.8043 83.0983 90.4734 81.8984 86.5011C80.6984 82.5292 81.1222 78.2423 83.0763 74.5834L112.549 19.4005ZM132.228 65.4516C133.206 63.6222 133.418 61.4787 132.817 59.4927C132.218 57.5068 130.855 55.841 129.03 54.8618C127.204 53.8826 125.065 53.6703 123.084 54.2716C121.102 54.8728 119.439 56.2383 118.462 58.0677C117.486 59.8972 117.273 62.0406 117.873 64.0266C118.474 66.0126 119.836 67.6784 121.662 68.6575C123.487 69.6367 125.626 69.849 127.608 69.2478C129.59 68.6466 131.252 67.2811 132.228 65.4516ZM159.762 80.2194C160.738 78.3899 160.95 76.2465 160.351 74.2605C159.75 72.2745 158.388 70.6087 156.562 69.6295C154.737 68.6504 152.598 68.4381 150.616 69.0393C148.634 69.6406 146.972 71.006 145.996 72.8355C145.018 74.6649 144.806 76.8084 145.407 78.7944C146.006 80.7804 147.369 82.4462 149.194 83.4253C151.02 84.4044 153.159 84.6167 155.14 84.0155C157.122 83.4143 158.785 82.0487 159.762 80.2194ZM176.727 98.1932C178.553 99.1726 180.692 99.3843 182.674 98.7834C184.655 98.1817 186.317 96.8167 187.294 94.9867C188.272 93.1576 188.483 91.0143 187.883 89.0282C187.284 87.0422 185.921 85.3764 184.096 84.3973C182.27 83.4182 180.131 83.2058 178.149 83.807C176.168 84.4082 174.505 85.7738 173.528 87.6032C172.551 89.4323 172.339 91.5764 172.939 93.5617C173.539 95.5479 174.902 97.2137 176.727 98.1932Z" fill="url(#paint1_linear_1_336)"/>
</g>
</g>
<defs>
<linearGradient id="paint0_linear_1_336" x1="77.4127" y1="132.338" x2="66.6651" y2="20.5323" gradientUnits="userSpaceOnUse">
<stop stop-color="#212121"/>
<stop offset="1" stop-color="#313131" stop-opacity="0"/>
</linearGradient>
<linearGradient id="paint1_linear_1_336" x1="120.007" y1="150.558" x2="170.788" y2="50.4244" gradientUnits="userSpaceOnUse">
<stop stop-color="#212121"/>
<stop offset="1" stop-color="#313131" stop-opacity="0"/>
</linearGradient>
</defs>
</svg>
