<svg width="150" height="151" viewBox="0 0 150 151" fill="none" xmlns="http://www.w3.org/2000/svg">
<path d="M75.0001 135.366C108.339 135.366 135.366 108.339 135.366 75C135.366 41.6609 108.339 14.6342 75.0001 14.6342C41.661 14.6342 14.6343 41.6609 14.6343 75C14.6343 108.339 41.661 135.366 75.0001 135.366Z" fill="#F2FAFD"/>
<path opacity="0.35" d="M74.9999 149.634C116.219 149.634 149.634 116.219 149.634 75C149.634 33.7807 116.219 0.365845 74.9999 0.365845C33.7806 0.365845 0.365723 33.7807 0.365723 75C0.365723 116.219 33.7806 149.634 74.9999 149.634Z" stroke="#F2FAFD" stroke-dasharray="2 4"/>
<path d="M83.529 101.814C89.1624 102.573 90.0295 99.1061 90.0295 95.6393C90.0295 95.6393 90.0295 95.6393 90.0295 95.531C90.0295 86.5398 84.3961 83.831 75.4041 83.831C66.4128 83.831 59.1544 87.5144 59.1544 96.3981V96.8312C59.1544 100.298 56.2294 102.465 64.0294 101.814H83.529Z" fill="#DBF1FA"/>
<path fill-rule="evenodd" clip-rule="evenodd" d="M73.8872 81.6915C68.6625 81.6915 64.3667 82.9829 61.3655 85.3646C58.3511 87.7559 56.688 91.2124 56.688 95.4234C56.688 97.2103 56.8178 98.9503 57.4905 100.25C57.8344 100.916 58.3234 101.473 59.0067 101.86C59.6861 102.244 60.5236 102.439 61.5372 102.439H83.5289H83.5377C86.8311 102.384 88.7423 101.672 89.7843 100.346C90.805 99.0476 90.8694 97.2915 90.8694 95.5317V95.4234C90.8694 91.2183 89.2655 87.7617 86.3043 85.3676C83.3555 82.9837 79.1116 81.6915 73.8872 81.6915ZM57.7198 95.4234C57.7198 91.5095 59.2526 88.3581 62.0068 86.1724C64.7744 83.9766 68.8202 82.7232 73.8872 82.7232C78.9543 82.7232 82.9436 83.9766 85.6553 86.1695C88.3545 88.3522 89.8377 91.5037 89.8377 95.4234V95.5317C89.8377 97.3471 89.7404 98.7322 88.9728 99.7083C88.2279 100.657 86.7279 101.353 83.5245 101.407H61.5372C60.6549 101.407 60.0029 101.238 59.5144 100.961C59.0297 100.687 58.6723 100.29 58.4069 99.7771C57.8608 98.7212 57.7198 97.2117 57.7198 95.4234Z" fill="#30B1E3"/>
<path d="M73.7794 86.9736C71.8291 86.9736 70.2041 85.3485 70.2041 83.3985V74.8405H77.4621V83.3985C77.3538 85.3485 75.7294 86.9736 73.7794 86.9736Z" fill="#F2FAFD"/>
<path fill-rule="evenodd" clip-rule="evenodd" d="M70.2059 74.3239C69.9209 74.3239 69.6899 74.5551 69.6899 74.8398V83.3985C69.6899 85.6332 71.5459 87.4895 73.7811 87.4895C76.0209 87.4895 77.8567 85.6339 77.9789 83.4271C77.9797 83.4176 77.9804 83.4081 77.9804 83.3985V74.8398C77.9804 74.5551 77.7492 74.3239 77.4638 74.3239H70.2059ZM73.7811 86.4578C72.1158 86.4578 70.7217 85.0632 70.7217 83.3985V75.3564H76.948V83.3839C76.847 85.0705 75.4363 86.4578 73.7811 86.4578Z" fill="#30B1E3"/>
<path d="M63.3691 67.4579L63.7989 71.2652C65.6412 71.2652 69.7002 71.1792 71.1986 70.8353C73.0716 70.4054 79.98 70.5897 81.6073 70.8353C82.909 71.0318 83.5419 71.347 83.6949 71.4801C83.7768 71.1423 83.9473 70.3624 83.9715 69.9448C83.9963 69.5273 83.4088 67.9286 83.1117 67.1815L80.2873 62.146L76.3566 59.0449L73.3478 57.7861C73.0511 57.8578 72.3347 58.0441 71.8434 58.216C71.2293 58.4309 69.2642 59.4134 69.0186 59.5056C68.7729 59.5977 66.5316 60.6722 65.8868 61.0714C65.3709 61.3907 64.7712 62.1664 64.5358 62.5144L64.1674 64.2339L63.3691 67.4579Z" fill="#F2FAFD"/>
<path d="M68.8181 48.9928C71.9093 47.9076 76.4903 48.5407 78.3949 48.9928L78.1066 50.2671H76.7917C73.4625 51.0481 66.6225 52.6758 65.8991 52.9389C64.9948 53.2677 62.7751 59.3511 62.7751 60.3376C62.7751 61.3241 64.3371 63.7903 64.1727 64.1191C64.0083 64.448 62.8574 68.8872 62.7751 69.6271C62.693 70.367 61.049 66.7087 60.8434 66.1744C60.6379 65.64 59.6928 61.4885 60.3504 57.1726C61.0081 52.8567 64.954 50.3494 68.8181 48.9928Z" fill="#F2FAFD"/>
<path d="M74.7555 58.0486C74.7555 58.0486 78.1134 59.5652 80.9304 62.8152C80.9304 62.8152 83.5302 66.2819 83.9634 70.1818C85.1553 69.7485 87.9716 67.2569 87.9716 61.2986C87.9716 58.9152 88.4048 49.0569 76.5965 48.8402C64.1385 48.6236 60.1302 55.9902 61.8636 64.2235C62.7302 68.2318 63.3802 69.2069 63.3802 69.2069C63.3802 69.2069 62.1885 63.4652 67.0635 61.0818C69.2302 59.9986 73.7802 58.8069 75.0804 57.3986C76.4882 55.9902 80.7138 52.6319 80.1716 48.9486" fill="#E2E8FF"/>
<path d="M83.9628 70.1821C83.2041 76.3573 79.3041 81.3402 73.9962 81.3402C68.4711 81.3402 64.0294 76.3573 63.3794 69.9655" fill="#F2FAFD"/>
<path d="M63.892 69.9131C63.8632 69.6296 63.61 69.4231 63.3265 69.452C63.0431 69.4808 62.8367 69.734 62.8655 70.0174C63.5332 76.5834 68.1248 81.8561 73.9953 81.8561C79.6799 81.8561 83.7006 76.5446 84.474 70.2448C84.5084 69.962 84.3079 69.7046 84.0248 69.6699C83.7423 69.6351 83.4848 69.8363 83.4497 70.1191C82.707 76.1693 78.9277 80.8244 73.9953 80.8244C68.8159 80.8244 64.5243 76.1305 63.892 69.9131Z" fill="#30B1E3"/>
<path d="M76.0549 50.7902C76.1091 50.2772 76.1091 50.2772 76.1083 50.2771L76.1076 50.2771L76.1054 50.2768L76.0995 50.2763L76.0805 50.2744C76.0637 50.273 76.0403 50.271 76.011 50.2688C75.9517 50.2645 75.8661 50.2593 75.7571 50.2552C75.5398 50.2471 75.2274 50.2437 74.8395 50.2613C74.0647 50.2965 72.9831 50.4161 71.7481 50.7529C69.2735 51.4278 66.1828 52.9758 63.7173 56.45C63.5524 56.6824 63.6071 57.0044 63.8394 57.1693C64.0718 57.3342 64.3938 57.2795 64.5588 57.0471C66.8598 53.8046 69.7275 52.3735 72.0195 51.7484C73.168 51.4352 74.1722 51.3246 74.8864 51.2921C75.2434 51.2758 75.5266 51.2792 75.7191 51.2863C75.8149 51.2899 75.8881 51.2944 75.9356 51.2979C75.9591 51.2996 75.9766 51.3012 75.9876 51.3021L75.9993 51.3031L76 51.3033L76.0008 51.3034C76.2839 51.333 76.5378 51.1277 76.5678 50.8446C76.5978 50.5613 76.3915 50.3072 76.1083 50.2771L76.0549 50.7902Z" fill="#30B1E3"/>
<path d="M79.0566 48.1144C79.6251 51.985 77.7073 55.4917 76.2124 56.9939C75.7046 57.5588 74.7878 58.1069 73.7824 58.6164C72.7493 59.1396 71.5425 59.6605 70.4074 60.1469L70.001 59.1986C71.1409 58.71 72.3173 58.2018 73.3156 57.6959C74.3349 57.1796 75.0907 56.7026 75.4522 56.2967L75.4617 56.2854L75.4727 56.2746C76.7934 54.9542 78.5481 51.7516 78.0351 48.2645L79.0566 48.1144Z" fill="#30B1E3"/>
<path d="M75.0868 47.5656C68.7579 47.4555 64.4393 49.3 61.9382 52.3157C59.4402 55.3277 58.8424 59.4034 59.7318 63.5728L59.7321 63.5742C60.1793 65.6426 60.9614 67.3179 61.6314 68.4766C61.9667 69.0565 62.275 69.5086 62.5012 69.8178C62.6143 69.9725 62.707 70.0915 62.7725 70.1731C62.8052 70.214 62.8311 70.2453 62.8494 70.2672L62.8709 70.2928L62.8772 70.3001L62.8792 70.3024L62.8799 70.3032C62.88 70.3033 62.8804 70.3037 63.2697 69.9652L62.8799 70.3032L64.0896 71.6943L63.7783 69.8785L63.7782 69.8777L63.7772 69.872L63.773 69.8447C63.7692 69.8196 63.7636 69.7812 63.757 69.7302C63.7438 69.6284 63.7265 69.4773 63.7112 69.2858C63.6804 68.9024 63.6576 68.3601 63.6901 67.7303C63.7555 66.4626 64.0424 64.8821 64.898 63.5234L64.0247 62.9736C63.0386 64.5399 62.7298 66.3177 62.6597 67.6772C62.651 67.8451 62.646 68.0072 62.6438 68.1625C62.6046 68.0971 62.5648 68.0295 62.5247 67.96C61.8947 66.8709 61.1603 65.2964 60.7408 63.3568C59.8971 59.4013 60.491 55.677 62.7324 52.9745C64.9708 50.2755 68.9398 48.4907 75.0693 48.5973C81.1351 48.7029 84.1864 51.1393 85.7529 53.7628C87.3444 56.4284 87.4534 59.3717 87.4534 60.5401C87.4534 63.4368 86.7693 65.6558 85.9564 67.1915C85.5495 67.9604 85.112 68.555 84.7146 68.9769C84.5785 69.1217 84.4505 69.2426 84.3334 69.3419C83.9354 67.5434 83.0566 65.7628 82.2532 64.3954C81.7907 63.6083 81.3451 62.946 81.0159 62.4799C80.8505 62.2466 80.7144 62.0621 80.6185 61.9351C80.5703 61.8717 80.5329 61.8226 80.5066 61.789L80.4766 61.7503L80.4685 61.7399L80.4656 61.7361C80.4656 61.736 80.4649 61.7357 80.061 62.0567L80.4656 61.7361L80.4583 61.7271L80.451 61.7188C78.989 60.0319 77.3866 58.9914 76.1485 58.3723C75.5288 58.0626 74.999 57.8575 74.6207 57.7291C74.432 57.6649 74.2805 57.6197 74.1744 57.5903C74.1217 57.5755 74.08 57.5646 74.05 57.5573L74.0156 57.5487L74.0054 57.5463L74.0017 57.5455L74.001 57.5453C74.0003 57.5453 74.0003 57.5451 73.8861 58.0483C73.7727 58.5516 73.7727 58.5516 73.772 58.5515L73.7764 58.5525L73.799 58.558C73.8203 58.5633 73.8532 58.572 73.8978 58.5843C73.9864 58.609 74.1195 58.6484 74.2893 58.7061C74.6288 58.8215 75.1146 59.0091 75.6868 59.2952C76.8298 59.8667 78.3107 60.8278 79.6637 62.3856L79.6651 62.3875L79.6915 62.4212C79.7149 62.4513 79.75 62.4969 79.7946 62.5566C79.8846 62.6759 80.0149 62.852 80.1729 63.0758C80.4905 63.5237 80.9185 64.1614 81.3634 64.9182C82.2598 66.4435 83.1934 68.4044 83.4503 70.2529L83.5381 70.8848L84.1373 70.6667C84.5449 70.5187 85.0103 70.1687 85.4661 69.684C85.9322 69.1885 86.4225 68.5168 86.8681 67.6743C87.7615 65.987 88.4859 63.6018 88.4859 60.5401C88.4859 59.3251 88.3783 56.1473 86.6383 53.2337C84.8734 50.2779 81.479 47.6768 75.0868 47.5656Z" fill="#30B1E3"/>
<path d="M84.4718 66.0722C84.9855 66.1209 84.9855 66.1206 84.9855 66.1203L84.9862 66.1176V66.1117L84.9877 66.092C84.9891 66.0755 84.9913 66.0522 84.9928 66.0225C84.9964 65.9631 85.0008 65.8778 85.0038 65.7689C85.0096 65.5512 85.0089 65.2389 84.9869 64.8513C84.943 64.0765 84.8113 62.9966 84.4608 61.7655C83.7584 59.2987 82.1757 56.2255 78.6745 53.799C78.4404 53.6367 78.1191 53.695 77.9567 53.9292C77.7943 54.1634 77.8528 54.4848 78.0869 54.6471C81.3547 56.9118 82.8182 59.7632 83.4686 62.0481C83.795 63.1929 83.9164 64.1958 83.9567 64.9097C83.9772 65.2664 83.9772 65.55 83.9721 65.7421C83.9699 65.8381 83.9662 65.9111 83.9633 65.9588C83.9618 65.9827 83.9604 66.0002 83.9596 66.0111L83.9582 66.0224V66.0236C83.9318 66.3069 84.1396 66.559 84.4235 66.5859C84.7067 66.6127 84.9584 66.404 84.9855 66.1203L84.4718 66.0722Z" fill="#30B1E3"/>
<path d="M58.5056 93.9058C58.5056 93.9058 59.3722 93.0395 60.8889 94.1224C61.3222 94.4473 64.0306 97.2644 62.4056 98.7812C60.7806 100.297 59.2639 97.5893 59.2639 97.5893L58.0723 96.0724L58.5056 93.9058Z" fill="#F2FAFD"/>
<path fill-rule="evenodd" clip-rule="evenodd" d="M58.872 97.8563L58.8748 97.8607C58.8883 97.8834 58.9076 97.9156 58.9323 97.9551C58.9817 98.0334 59.0533 98.1424 59.1445 98.2683C59.3246 98.5156 59.5908 98.8397 59.9223 99.1171C60.2498 99.3914 60.6776 99.6505 61.1779 99.7053C61.7025 99.7631 62.2347 99.5883 62.7282 99.1273C63.2529 98.6378 63.427 98.0312 63.3868 97.4283C63.3481 96.8466 63.1117 96.2707 62.8307 95.7731C62.5468 95.2712 62.1977 94.8153 61.8943 94.4656C61.5972 94.1231 61.3209 93.8568 61.1727 93.7456L61.1683 93.7427L61.1638 93.739C60.3138 93.1317 59.587 93.0358 59.036 93.1456C58.7692 93.199 58.5617 93.2978 58.418 93.3856C58.3461 93.4295 58.2896 93.4712 58.2487 93.5049C58.2282 93.5209 58.2116 93.5356 58.1988 93.5473C58.1923 93.5531 58.1869 93.5583 58.1824 93.5627L58.1763 93.5685L58.1738 93.5707L58.1727 93.5722C58.1725 93.5729 58.1717 93.5729 58.5058 93.9073L58.1717 93.5729L58.0705 93.6739L57.5664 96.1946L58.872 97.8563ZM58.5786 95.9531L58.9335 94.1788C58.9997 94.1407 59.0963 94.0975 59.2215 94.0727C59.4823 94.02 59.9454 94.0317 60.6093 94.5044C60.6818 94.56 60.9036 94.7663 61.1806 95.0853C61.4561 95.4022 61.7638 95.8068 62.0079 96.2385C62.2551 96.6761 62.4183 97.1085 62.4438 97.4912C62.468 97.8534 62.3713 98.168 62.0834 98.4366C61.7645 98.7344 61.4977 98.79 61.2808 98.7658C61.0398 98.7395 60.7837 98.6056 60.5289 98.3927C60.2782 98.1827 60.0636 97.9244 59.9086 97.7114C59.8321 97.6068 59.7726 97.5161 59.7327 97.4524C59.7128 97.4209 59.6979 97.3961 59.6884 97.38L59.6783 97.3624L59.6765 97.3595L59.6763 97.3588L59.6585 97.3273L58.5786 95.9531Z" fill="#30B1E3"/>
<path d="M88.839 93.7983C88.839 93.7983 87.9719 92.932 86.4551 94.0149C86.0219 94.3398 83.3138 97.1568 84.939 98.6729C86.4551 100.19 88.0802 97.4817 88.0802 97.4817L89.2721 95.9649L88.839 93.7983Z" fill="#F2FAFD"/>
<path fill-rule="evenodd" clip-rule="evenodd" d="M88.8373 93.7983C89.2017 93.4339 89.2017 93.4332 89.201 93.4332L89.1995 93.431L89.1966 93.4288L89.1907 93.4222L89.1732 93.4061C89.16 93.3944 89.1424 93.379 89.1212 93.3622C89.0795 93.3278 89.021 93.2854 88.9478 93.24C88.8 93.15 88.5878 93.049 88.3156 92.9949C87.7507 92.8815 87.0124 92.9817 86.1541 93.5949L86.1439 93.6022C85.9924 93.7163 85.7136 93.9856 85.4158 94.3288C85.1114 94.6793 84.7602 95.138 84.4741 95.6436C84.1917 96.1434 83.9524 96.7258 83.9129 97.3171C83.8719 97.9288 84.0483 98.5456 84.5788 99.0446C85.0551 99.518 85.59 99.6995 86.1249 99.6395C86.6305 99.5832 87.0688 99.319 87.4032 99.0454C87.7434 98.7673 88.0214 98.4424 88.211 98.1944C88.3068 98.0693 88.3829 97.9602 88.4349 97.8812C88.4612 97.8417 88.4824 97.8095 88.4963 97.7868L88.5022 97.778L89.8229 96.0966L89.3122 93.5437L89.2017 93.4339L88.8373 93.7983ZM87.6366 97.2161L87.6344 97.219L87.6234 97.2366C87.6139 97.2527 87.5978 97.2776 87.5766 97.309C87.5341 97.3719 87.4712 97.4627 87.3914 97.568C87.2283 97.7802 87.0058 98.0378 86.7497 98.2471C86.4885 98.4607 86.2361 98.5895 86.0107 98.6144C85.8168 98.6356 85.5819 98.5888 85.3017 98.3085L85.2893 98.2961C85.0119 98.0378 84.919 97.7363 84.9424 97.3858C84.9673 97.0119 85.1268 96.5854 85.3727 96.1515C85.6149 95.7227 85.9207 95.321 86.1951 95.0049C86.471 94.6873 86.6897 94.4839 86.7593 94.4305C87.4141 93.9644 87.8656 93.9571 88.1129 94.0061C88.2227 94.028 88.309 94.0646 88.3712 94.0983L88.718 95.8332L87.6527 97.1883L87.6366 97.2161Z" fill="#30B1E3"/>
<path d="M57.8553 101.707C59.1169 101.975 59.1166 101.977 59.1166 101.977L59.119 101.966C59.1222 101.952 59.128 101.928 59.1367 101.894C59.154 101.826 59.1827 101.72 59.225 101.58C59.3098 101.3 59.4484 100.891 59.6583 100.399C60.0792 99.4098 60.7788 98.1015 61.889 96.8246C64.0683 94.3185 67.9316 91.8088 74.7775 92.2683H74.7819C80.4139 92.6268 83.7066 94.7305 85.7012 96.8715C87.398 98.692 88.1912 100.552 88.6939 101.731C88.797 101.973 88.8878 102.186 88.9719 102.364L91.3053 101.265C91.2505 101.149 91.1831 100.989 91.1005 100.793C90.6227 99.6563 89.6334 97.3068 87.5883 95.1124C85.1414 92.4871 81.2312 90.0951 74.948 89.6941C67.2782 89.1798 62.6379 92.032 59.9425 95.1322C58.6153 96.6585 57.7847 98.2141 57.2848 99.3885C57.0342 99.9768 56.8648 100.474 56.7565 100.831C56.7024 101.01 56.6634 101.153 56.6371 101.257C56.624 101.308 56.614 101.35 56.6069 101.38L56.5983 101.418L56.5956 101.43L56.5946 101.434L56.5942 101.436C56.594 101.437 56.5939 101.438 57.8553 101.707Z" fill="#092290"/>
<path d="M76.7446 90.9307L74.4697 101.655L76.9934 102.191L79.2683 91.4663L76.7446 90.9307Z" fill="#092290"/>
<path d="M52.9793 102.031C52.6543 101.382 51.4627 98.8902 52.9793 98.6729C54.6043 98.348 55.9043 102.248 55.9043 102.248" fill="#F2FAFD"/>
<path d="M53.0813 99.1785C53.2554 99.1434 53.4796 99.2056 53.7748 99.4749C54.0665 99.7412 54.3496 100.144 54.6028 100.592C54.8525 101.034 55.0566 101.49 55.1989 101.838C55.2698 102.012 55.3246 102.157 55.3614 102.258C55.3799 102.308 55.3937 102.348 55.4029 102.373L55.4129 102.402L55.4152 102.41L55.4157 102.41C55.4157 102.41 55.4157 102.41 55.9051 102.247C56.3945 102.084 56.3945 102.084 56.3945 102.084L56.394 102.083L56.3931 102.08L56.3896 102.07L56.3773 102.034C56.3666 102.004 56.3509 101.959 56.3307 101.903C56.2901 101.792 56.2306 101.636 56.1542 101.448C56.002 101.076 55.7795 100.577 55.5011 100.084C55.2262 99.5978 54.8796 99.0863 54.4705 98.7132C54.0679 98.3451 53.5255 98.0437 52.8932 98.1637C52.6347 98.2032 52.401 98.2954 52.2077 98.4505C52.0102 98.61 51.8831 98.8127 51.8079 99.0263C51.6646 99.4332 51.7034 99.8971 51.7839 100.292C51.9479 101.097 52.3563 101.937 52.5186 102.262L53.4415 101.8C53.2789 101.475 52.929 100.744 52.795 100.087C52.7266 99.75 52.7315 99.51 52.7812 99.3688C52.8025 99.308 52.8285 99.2751 52.8549 99.2539C52.8821 99.2327 52.938 99.1998 53.0531 99.1837L53.0673 99.1815L53.0813 99.1785Z" fill="#30B1E3"/>
<path d="M53.6545 98.3349C53.6545 98.3349 53.1128 96.7097 54.1961 95.8434C55.3878 95.0853 56.5795 96.2766 56.5795 96.2766C56.5795 96.2766 59.7211 98.5514 58.0961 100.61C57.7711 101.044 56.9044 101.585 55.8211 100.935C54.7378 100.068 53.6545 98.3349 53.6545 98.3349Z" fill="#F2FAFD"/>
<path fill-rule="evenodd" clip-rule="evenodd" d="M56.8321 95.7015C56.6421 95.5325 56.3005 95.2288 55.875 95.0569C55.3268 94.8351 54.6573 94.8271 53.9188 95.2969L53.8952 95.3122L53.8735 95.3298C53.2104 95.8603 52.9527 96.5078 52.914 97.0998C52.8766 97.6705 53.0426 98.1717 53.1982 98.4659C53.3479 98.7483 53.7733 99.2986 54.1999 99.8108C54.6372 100.337 55.1369 100.895 55.4711 101.203C55.9663 101.66 56.67 101.651 57.1768 101.541C57.4472 101.482 57.7079 101.386 57.9304 101.269C58.1412 101.158 58.3581 101.006 58.5042 100.815C58.9826 100.207 59.16 99.5759 59.1161 98.9649C59.0731 98.3686 58.8223 97.8366 58.5261 97.4005C58.0195 96.6542 57.2982 96.0798 57.0108 95.8515C56.9678 95.8171 56.9345 95.7908 56.9131 95.7725C56.8903 95.7534 56.8633 95.7293 56.8321 95.7015ZM53.9436 97.1671C53.9645 96.8488 54.0932 96.4844 54.4964 96.1529C54.937 95.8808 55.2491 95.9166 55.4886 96.0139C55.7336 96.1127 55.9224 96.2773 56.1186 96.4493C56.1602 96.4859 56.2022 96.5225 56.2451 96.5591C56.2828 96.5912 56.3317 96.63 56.3892 96.6769C56.7011 96.9271 57.2667 97.3822 57.6724 97.98C57.9077 98.3261 58.0614 98.6847 58.0869 99.0395C58.1113 99.3791 58.0223 99.7595 57.6908 100.18L57.683 100.19C57.6665 100.212 57.5971 100.278 57.4491 100.356C57.3108 100.429 57.1385 100.493 56.9577 100.533C56.5622 100.619 56.2909 100.556 56.1704 100.444C55.889 100.185 55.4252 99.6703 54.993 99.1508C54.5501 98.6188 54.2001 98.1527 54.11 97.983C54.026 97.8242 53.9211 97.5125 53.9436 97.1671Z" fill="#30B1E3"/>
<path d="M55.7969 95.7483C55.7969 95.7483 55.0386 94.5571 56.2302 93.7983C57.4219 93.0402 58.6136 94.2322 58.6136 94.2322C58.6136 94.2322 59.9136 95.64 60.1302 96.1822C60.3469 96.6154 60.5635 97.6983 59.6969 98.1322C58.8303 98.5654 58.3969 98.3488 58.0719 97.9156C57.6386 97.4817 55.7969 95.7483 55.7969 95.7483Z" fill="#F2FAFD"/>
<path fill-rule="evenodd" clip-rule="evenodd" d="M59.0434 93.9029C59.0258 93.8868 59.0066 93.8693 58.9859 93.8495C58.7843 93.6607 58.4342 93.3329 57.9779 93.1544C57.4262 92.9385 56.7642 92.9495 56.0336 93.4141C55.3128 93.8729 55.0265 94.4488 55.0458 95.021C55.0633 95.539 55.3297 95.9436 55.477 96.1244C55.6177 96.2978 56.1045 96.7719 56.5743 97.2175C57.0569 97.6756 57.5785 98.1563 57.8192 98.3597C58.3646 98.8207 59.2131 99.1558 60.0553 98.6173C60.5273 98.3151 60.7272 97.7546 60.7992 97.3163C60.8704 96.8839 60.8496 96.3754 60.682 96.0227C60.5383 95.6751 60.2257 95.2419 59.932 94.8775C59.6227 94.4934 59.2802 94.121 59.0434 93.9029ZM56.5876 94.2849C57.0487 93.9915 57.3659 94.0229 57.6016 94.1151C57.8643 94.2183 58.0736 94.4115 58.2908 94.6127L58.3445 94.6624C58.5326 94.8351 58.8401 95.1673 59.1287 95.5251C59.4277 95.8961 59.6549 96.2327 59.7315 96.4244L59.7395 96.4441L59.7491 96.4632C59.7891 96.5436 59.8361 96.8144 59.7811 97.1488C59.7258 97.4854 59.6006 97.6829 59.4991 97.748C59.1945 97.9427 58.8518 97.8819 58.4853 97.5717C58.27 97.3902 57.7683 96.9285 57.2844 96.469C56.7878 95.9978 56.3651 95.5815 56.2776 95.4739C56.1965 95.3744 56.0837 95.1827 56.077 94.9858C56.0722 94.8432 56.1168 94.5841 56.5876 94.2849Z" fill="#30B1E3"/>
<path d="M94.3652 102.032C94.69 101.382 95.9903 98.9985 94.3652 98.5653C92.4152 98.1322 90.79 102.14 90.79 102.14" fill="#F2FAFD"/>
<path d="M94.4759 98.062C93.7896 97.9098 93.1713 98.1608 92.6759 98.5266C92.1835 98.8903 91.7591 99.4032 91.4196 99.8986C91.0764 100.399 90.8005 100.91 90.611 101.292C90.5159 101.484 90.4413 101.646 90.3908 101.76C90.3652 101.817 90.3462 101.863 90.3323 101.895L90.3169 101.932L90.3125 101.942L90.311 101.945V101.946C90.311 101.946 90.3103 101.947 90.7888 102.141C91.2666 102.334 91.2666 102.334 91.2666 102.334L91.2674 102.333L91.2703 102.326L91.2827 102.297C91.2937 102.27 91.3113 102.23 91.334 102.179C91.3801 102.075 91.4474 101.927 91.5352 101.75C91.7115 101.394 91.964 100.93 92.2705 100.482C92.5808 100.03 92.9284 99.6227 93.2891 99.3564C93.6425 99.0951 93.9549 99.0073 94.2418 99.0673C94.4847 99.1347 94.5659 99.2466 94.6076 99.3666C94.6632 99.529 94.6647 99.7771 94.5915 100.106C94.4598 100.699 94.1437 101.325 93.9557 101.695C93.9366 101.734 93.9183 101.769 93.9022 101.802L94.8249 102.263C94.8396 102.234 94.8564 102.201 94.8754 102.163C95.0576 101.805 95.4359 101.061 95.5984 100.33C95.6884 99.9271 95.7301 99.4573 95.583 99.0308C95.4213 98.5632 95.0576 98.2164 94.4964 98.0671L94.4862 98.0642L94.4759 98.062Z" fill="#30B1E3"/>
<path d="M93.7135 98.7812C93.7135 98.7812 94.2549 97.1568 93.172 96.2898C91.9801 95.5317 90.8964 96.5064 90.8964 96.5064C90.8964 96.5064 87.6469 98.9978 89.272 101.056C89.5969 101.49 90.5715 102.14 91.5469 101.49C92.7381 100.731 93.7135 98.7812 93.7135 98.7812Z" fill="#F2FAFD"/>
<path fill-rule="evenodd" clip-rule="evenodd" d="M93.4469 95.8544C92.683 95.3678 91.9396 95.4402 91.4135 95.6276C91.1544 95.719 90.9437 95.839 90.7981 95.9356C90.7249 95.9839 90.6664 96.0278 90.6247 96.0607C90.6035 96.0768 90.5866 96.0907 90.5742 96.1017L90.5676 96.1068L90.5362 96.1317C90.5098 96.1529 90.4725 96.1837 90.4264 96.2224C90.3342 96.3007 90.2054 96.4127 90.0569 96.5539C89.7627 96.8342 89.3808 97.2373 89.0493 97.7159C88.7208 98.19 88.4201 98.7703 88.3279 99.4024C88.2335 100.052 88.3637 100.738 88.8613 101.371C89.0844 101.666 89.4927 101.999 90.0005 102.168C90.5325 102.346 91.1888 102.345 91.8269 101.922C92.5147 101.483 93.103 100.733 93.5032 100.139C93.7088 99.8341 93.8749 99.5554 93.9898 99.3512C94.0476 99.2495 94.093 99.1661 94.1237 99.1076C94.1391 99.0783 94.1515 99.0549 94.1596 99.0388L94.1691 99.0198L94.172 99.0146L94.1727 99.0132L94.1735 99.0124C94.1735 99.0117 94.1735 99.0117 93.7118 98.7812L94.1735 99.0124L94.1896 98.9788L94.2013 98.9444L93.7118 98.7812C94.2013 98.9444 94.2013 98.9444 94.2013 98.9444L94.202 98.9429L94.2027 98.94L94.2049 98.9334L94.2108 98.9137C94.2159 98.8968 94.2225 98.8749 94.2305 98.8463C94.2459 98.7907 94.2657 98.7124 94.2847 98.6166C94.3235 98.4271 94.363 98.1615 94.363 97.86C94.363 97.2673 94.2064 96.4581 93.4923 95.8866L93.471 95.869L93.4469 95.8544ZM91.2093 96.9154L91.2254 96.9029L91.2379 96.892L91.2408 96.889C91.2444 96.8861 91.2525 96.8795 91.2635 96.8707C91.2854 96.8532 91.3213 96.8268 91.3681 96.7961C91.4625 96.7332 91.5979 96.6571 91.7581 96.6C92.0654 96.491 92.451 96.4544 92.8688 96.7098C93.2215 97.0046 93.3313 97.4327 93.3313 97.86C93.3313 98.0744 93.3027 98.269 93.2742 98.4103C93.2596 98.4805 93.2457 98.5361 93.2354 98.5727L93.2318 98.5873L93.2113 98.6254C93.1849 98.6766 93.144 98.7512 93.092 98.8442C92.9866 99.03 92.8344 99.2854 92.6479 99.5627C92.263 100.133 91.7705 100.735 91.2679 101.054L91.2591 101.06C90.924 101.284 90.6064 101.283 90.3269 101.19C90.0262 101.089 89.7862 100.884 89.683 100.747L89.6749 100.736C89.364 100.342 89.2915 99.9454 89.3493 99.551C89.4093 99.1376 89.6164 98.7088 89.8974 98.3027C90.1754 97.9017 90.5047 97.5527 90.7681 97.3017C90.8991 97.1766 91.0118 97.0785 91.0908 97.012C91.1303 96.979 91.161 96.9534 91.1815 96.9373L91.2042 96.9198L91.2093 96.9154Z" fill="#30B1E3"/>
<path d="M91.6558 95.64C91.6558 95.64 92.4146 94.4481 91.2226 93.69C90.0307 92.9312 88.8395 94.1232 88.8395 94.1232C88.8395 94.1232 87.5392 95.4234 87.3226 95.9649C87.106 96.398 86.8895 97.4817 87.7558 97.9149C88.5146 98.3481 89.2726 97.9149 89.7058 97.4817C90.0307 97.1568 91.6558 95.64 91.6558 95.64Z" fill="#F2FAFD"/>
<path fill-rule="evenodd" clip-rule="evenodd" d="M91.498 93.2546C90.7019 92.7476 89.9073 92.9078 89.3694 93.1522C89.1009 93.2744 88.8807 93.4229 88.7292 93.5393C88.6524 93.5978 88.5916 93.6498 88.5485 93.6885C88.5265 93.7076 88.5097 93.7237 88.4965 93.7354L88.4812 93.75L88.476 93.7551L88.4746 93.7573L88.4738 93.7581C88.4738 93.7581 88.4731 93.7588 88.8382 94.1232L88.4731 93.7588L88.4687 93.7632L88.457 93.7749L88.4138 93.8188C88.3765 93.8561 88.3238 93.911 88.2595 93.9776C88.1314 94.1107 87.958 94.2944 87.7765 94.4963C87.5965 94.6976 87.4041 94.9215 87.2409 95.1344C87.0916 95.3276 86.9358 95.5507 86.8509 95.7527C86.7112 96.0402 86.5831 96.5012 86.6168 96.9768C86.6534 97.481 86.8816 98.0495 87.5109 98.37C88.5836 98.9737 89.5934 98.3224 90.0697 97.8461C90.2248 97.691 90.7048 97.238 91.1548 96.8151C91.378 96.6051 91.5909 96.4061 91.7482 96.259L92.0065 96.0176L92.0548 95.9722L92.0899 95.9166L91.6546 95.64C92.0899 95.9166 92.0899 95.9166 92.0899 95.9166L92.0907 95.9159L92.0914 95.9151L92.0929 95.9129L92.0965 95.9063L92.1068 95.8888C92.1155 95.8749 92.1265 95.8559 92.139 95.8324C92.1638 95.7863 92.196 95.722 92.2297 95.6437C92.2955 95.4885 92.3709 95.2646 92.398 95.0027C92.4251 94.7378 92.4038 94.4239 92.2634 94.1063C92.1214 93.7844 91.8726 93.4924 91.498 93.2546ZM91.2433 95.3181C91.2536 95.2976 91.2668 95.2712 91.2799 95.2405C91.3187 95.1483 91.3582 95.0268 91.3714 94.8959C91.3846 94.7678 91.3721 94.642 91.3194 94.5234C91.269 94.4078 91.1658 94.2666 90.9441 94.1254C90.549 93.8737 90.1524 93.93 89.796 94.0917C89.6182 94.1729 89.4653 94.2746 89.3563 94.3588C89.3029 94.3998 89.2612 94.4349 89.2348 94.459C89.2216 94.4707 89.2121 94.4795 89.2063 94.4846L89.2012 94.489L89.1997 94.4912L89.1894 94.5015L89.1499 94.5417C89.1148 94.5776 89.0643 94.6288 89.0036 94.6924C88.8807 94.8198 88.716 94.9946 88.5448 95.1856C88.3736 95.3766 88.2002 95.5793 88.0582 95.7629C87.9075 95.959 87.8255 96.0929 87.7999 96.1566L87.7926 96.1763L87.7824 96.1954C87.7092 96.3432 87.6265 96.63 87.6463 96.9029C87.6638 97.1539 87.7575 97.3398 87.9851 97.4532L87.9982 97.4598L88.0107 97.4671C88.4504 97.7181 88.9509 97.5059 89.3394 97.1166C89.5092 96.9468 90.0046 96.4793 90.448 96.0629C90.6719 95.8529 90.8855 95.6524 91.0429 95.5054L91.2433 95.3181Z" fill="#30B1E3"/>
<path d="M74.3603 71.984C74.1591 71.7826 73.8327 71.7825 73.6308 71.9837L73.6271 71.9877L73.6073 72.0065C73.5891 72.0238 73.5613 72.0502 73.5239 72.084C73.4486 72.1517 73.3366 72.2488 73.1932 72.362C72.9056 72.5892 72.498 72.8762 72.0156 73.1205C71.0396 73.6149 69.8495 73.8922 68.7086 73.2988C68.4558 73.1676 68.1443 73.2658 68.0129 73.5183C67.8814 73.7715 67.9798 74.0824 68.2326 74.2141C69.8001 75.0293 71.3725 74.6027 72.4818 74.0407C73.0421 73.7568 73.5078 73.4283 73.8327 73.1715C73.9959 73.0425 74.1254 72.9306 74.2147 72.8498C74.26 72.8094 74.2944 72.7766 74.3193 72.7534L74.3478 72.7256L74.3559 72.7175L74.3588 72.7149L74.3595 72.714C74.3595 72.714 74.3603 72.7133 73.9959 72.3487L74.3603 72.7133C74.5622 72.512 74.5622 72.1854 74.3603 71.984Z" fill="#30B1E3"/>
<path d="M73.6319 71.9533C73.8331 71.7519 74.1602 71.7518 74.3614 71.953L74.3658 71.9571L74.3848 71.9759C74.4031 71.9931 74.4309 72.0195 74.4689 72.0534C74.5436 72.121 74.6555 72.2182 74.7989 72.3314C75.0865 72.5587 75.4941 72.8458 75.977 73.0901C76.9531 73.5842 78.1428 73.8622 79.2836 73.2688C79.5367 73.1372 79.8477 73.2359 79.9794 73.4883C80.1111 73.7415 80.0124 74.0525 79.7599 74.1842C78.1926 74.9993 76.6202 74.5727 75.5109 74.0107C74.9504 73.7268 74.4843 73.3976 74.1594 73.141C73.9963 73.0122 73.8668 72.9002 73.7775 72.8194C73.7329 72.779 73.6977 72.7462 73.6728 72.7229L73.6443 72.6952L73.6363 72.6871L73.6333 72.6845L73.6326 72.6836C73.6326 72.6836 73.6319 72.6829 73.997 72.3181L73.6319 72.6829C73.4307 72.4814 73.4307 72.1548 73.6319 71.9533Z" fill="#30B1E3"/>
<path d="M50.4878 102.439H96.7485V101.407H50.4878V102.439Z" fill="#30B1E3"/>
<path d="M98.7006 84.2788H92.8469C92.4428 84.2788 92.1152 84.6064 92.1152 85.0105C92.1152 85.4146 92.4428 85.7422 92.8469 85.7422H98.7006C99.1047 85.7422 99.4323 85.4146 99.4323 85.0105C99.4323 84.6064 99.1047 84.2788 98.7006 84.2788Z" fill="#30B1E3"/>
<path d="M57.0558 77.3129H51.6228C51.2187 77.3129 50.8911 77.6405 50.8911 78.0446C50.8911 78.4487 51.2187 78.7763 51.6228 78.7763H57.0558C57.4599 78.7763 57.7875 78.4487 57.7875 78.0446C57.7875 77.6405 57.4599 77.3129 57.0558 77.3129Z" fill="#30B1E3"/>
</svg>
