<svg width="150" height="151" viewBox="0 0 150 151" fill="none" xmlns="http://www.w3.org/2000/svg">
<path d="M75.0001 135.366C108.339 135.366 135.366 108.339 135.366 75C135.366 41.6609 108.339 14.6342 75.0001 14.6342C41.661 14.6342 14.6343 41.6609 14.6343 75C14.6343 108.339 41.661 135.366 75.0001 135.366Z" fill="#F2FAFD"/>
<path opacity="0.35" d="M74.9999 149.634C116.219 149.634 149.634 116.219 149.634 75C149.634 33.7807 116.219 0.365845 74.9999 0.365845C33.7806 0.365845 0.365723 33.7807 0.365723 75C0.365723 116.219 33.7806 149.634 74.9999 149.634Z" stroke="#F2FAFD" stroke-dasharray="2 4"/>
<path d="M54.7796 64.6334L53.8934 64.872L53.3134 62.8949L52.6317 59.7245L52.3589 57.4745L52.6317 56.0768L53.0409 54.8495L53.8934 54.0313L55.0864 53.3836L56.0068 53.1109L56.7909 52.429L56.9954 51.5086V50.3154L56.7909 48.8495L57.3363 47.929L58.5636 47.0086L60.5068 46.4631H62.8249L67.3931 47.929L70.2226 50.3154L68.7567 50.6905L63.0636 52.0201C61.1091 53.4064 57.1591 56.2336 56.9954 56.4518C56.8318 56.67 55.8136 59.5652 55.325 60.9856L54.7796 64.6334Z" fill="#F2FAFD"/>
<path d="M55.1649 66.3928C55.1649 66.3928 50.7238 55.9479 56.8098 54.4675C59.1949 53.8918 58.7014 51.0132 58.7014 50.0263C58.8659 46.1608 66.9258 46.4898 71.8605 52.0824C72.5184 52.8226 72.4362 53.5628 72.8474 54.4675C73.1764 55.1254 73.5056 55.7834 73.6695 56.4413C74.492 58.9909 74.1634 60.8825 73.4229 64.748L73.341 65.0769" fill="#DBF1FA"/>
<path d="M83.2932 59.6026C83.0203 59.6026 82.7993 59.3817 82.7993 59.1092C82.7993 58.8366 83.0203 58.6157 83.2932 58.6157H87.8986C88.1715 58.6157 88.3925 58.8366 88.3925 59.1092C88.3925 59.3817 88.1715 59.6026 87.8986 59.6026H83.2932Z" fill="#30B1E3"/>
<path d="M40.9756 66.0534C40.9756 66.0533 40.9756 66.0535 40.9756 66.0534C40.9756 65.7809 41.1965 65.5599 41.469 65.5599H46.0747C46.3473 65.5599 46.5682 65.7809 46.5682 66.0534C46.5682 66.326 46.3473 66.5469 46.0747 66.5469H41.469C41.1966 66.5469 40.9757 66.3259 40.9756 66.0534Z" fill="#30B1E3"/>
<path d="M66.71 76.6756C68.3535 76.8556 70.455 77.6495 71.3003 78.0242L71.9431 78.7303H70.948C69.5353 78.6981 66.601 78.6534 66.165 78.7303C65.729 78.8071 61.6605 79.6185 59.6807 80.0144C57.958 81.1054 54.4611 83.3334 54.2557 83.5134C54.0502 83.6927 53.0145 87.7822 52.5222 89.8046L51.8475 92.4051C51.6016 92.2442 50.9942 91.789 50.532 91.249C49.9542 90.5751 49.6327 89.0985 49.3441 88.2959C49.1131 87.6542 49.4403 85.9742 49.6327 85.2146C49.8681 84.3585 50.6405 82.2995 51.8475 80.9129C53.3562 79.1795 54.5759 78.3768 55.3143 78.0242C56.0526 77.6715 58.8776 76.9325 60.3542 76.6756C61.8309 76.4188 64.6557 76.451 66.71 76.6756Z" fill="#F2FAFD"/>
<path d="M72.0262 93.3681C75.1513 93.3681 77.7013 90.9834 77.7013 87.9403C77.7013 87.9403 77.7013 87.9403 77.7013 87.8576C77.7013 80.0444 72.7664 77.5771 64.9532 77.5771C57.1401 77.5771 50.7251 80.7849 50.7251 88.5981V89.0093C50.7251 91.9698 51.8765 93.2861 55.0018 93.2861H72.0262V93.3681Z" fill="#DBF1FA"/>
<path fill-rule="evenodd" clip-rule="evenodd" d="M52.8264 79.2805C55.3628 77.2537 59.0115 76.1385 63.4718 76.1385C67.9321 76.1385 71.5808 77.2537 74.1171 79.2805C76.6568 81.3103 78.0697 84.2451 78.0697 87.8583V87.9388C78.1532 91.1415 75.3749 93.7383 72.0251 93.7383H55.0006C51.6496 93.7383 48.8735 91.1407 48.8735 87.9403V87.8583C48.8735 84.2451 50.287 81.3103 52.8264 79.2805ZM53.3299 79.8637C50.9773 81.7398 49.696 84.4785 49.696 87.9403V88.0229C49.696 90.7434 52.1004 92.9985 55.0006 92.9985H72.0251C74.9256 92.9985 77.33 90.7434 77.33 88.0229V87.9403C77.33 84.4793 76.0283 81.7405 73.6554 79.8644C71.2782 77.9846 67.8131 76.961 63.4718 76.961C59.1305 76.961 55.6862 77.9846 53.3299 79.8637Z" fill="#30B1E3"/>
<path d="M63.4719 80.3729C61.7448 80.3729 60.3467 78.9754 60.3467 77.2478V69.8461H66.6795V77.2478C66.6795 78.9754 65.2813 80.3729 63.4719 80.3729Z" fill="#F2FAFD"/>
<path fill-rule="evenodd" clip-rule="evenodd" d="M60.0595 69.5153C60.1229 69.4645 60.2023 69.4356 60.265 69.4356H66.5978C66.6928 69.4356 66.779 69.4594 66.841 69.5214C66.903 69.5833 66.9268 69.6696 66.9268 69.7646V77.329C67.0103 79.1905 65.404 80.7029 63.4725 80.7029C61.5395 80.7029 59.936 79.1898 59.936 77.3312V69.7646C59.936 69.6518 59.9934 69.5681 60.0595 69.5153ZM60.7585 77.3312C60.7585 78.8451 62.0344 80.0451 63.5548 80.0451C65.0751 80.0451 66.3511 78.8451 66.3511 77.3312V70.1758H60.7585V77.3312Z" fill="#30B1E3"/>
<path d="M72.1248 64.7005C72.0055 64.7004 71.9398 65.0169 71.9219 65.1751C71.8089 66.0292 71.5774 67.827 71.5557 68.1848C71.5286 68.6322 72.5587 68.3204 73.2909 67.7375C74.0227 67.1545 73.6429 65.731 73.4666 65.1751C73.2909 64.6193 72.2741 64.7006 72.1248 64.7005Z" fill="#F2FAFD"/>
<path fill-rule="evenodd" clip-rule="evenodd" d="M70.5865 66.3029C70.7538 65.1372 71.6736 64.2911 72.6898 64.4604C73.1932 64.5444 73.6169 64.7975 73.8708 65.3037C74.1225 65.7245 74.2052 66.3098 74.1218 66.8106C73.955 67.8124 73.1191 68.6544 72.1896 68.6544H71.9354C71.0041 68.485 70.3366 67.3902 70.5865 66.3029ZM72.4364 65.0356C71.8871 65.0356 71.3242 65.5897 71.2435 66.315L71.243 66.3185C71.0819 67.1241 71.4849 67.8379 72.1149 67.997C72.741 68.0736 73.303 67.5248 73.4654 66.7135C73.5452 66.3126 73.4654 65.9106 73.3045 65.5886C73.1468 65.2737 72.9126 65.1158 72.5957 65.0356H72.4364Z" fill="#30B1E3"/>
<path d="M54.3519 64.8474C54.7666 64.5941 55.0043 64.8281 55.0714 64.9768L55.3021 68.259C55.2252 68.2926 54.965 68.3597 54.5391 68.3597C54.0069 68.3597 53.7325 67.8703 53.4305 67.3953C53.1285 66.9203 53.2434 65.999 53.4305 65.452C53.6177 64.905 53.8336 65.1641 54.3519 64.8474Z" fill="#F2FAFD"/>
<path fill-rule="evenodd" clip-rule="evenodd" d="M55.6752 64.8811C56.063 65.2164 56.3558 65.7188 56.4395 66.3045C56.5229 66.8882 56.4189 67.4526 56.1776 67.8828C55.9362 68.3131 55.5556 68.6115 55.0866 68.6541L55.0749 68.6551L55.0645 68.6499C54.9911 68.6132 54.9388 68.614 54.8956 68.6226C54.8775 68.6262 54.8613 68.6311 54.8439 68.6364L54.8285 68.641C54.8063 68.6475 54.7809 68.6543 54.7539 68.6543C53.8236 68.6543 53.0706 67.8936 52.9039 66.81C52.8207 66.2276 52.9033 65.7242 53.1552 65.3036C53.4088 64.7974 53.832 64.5444 54.3356 64.4604C54.8027 64.3756 55.2877 64.546 55.6752 64.8811ZM54.3478 65.0355C54.0309 65.1157 53.7967 65.2736 53.6392 65.5885C53.4783 65.9104 53.3982 66.3122 53.4783 66.7131C53.5592 67.077 53.7208 67.399 53.931 67.6293C54.1413 67.8596 54.3983 67.9963 54.6717 67.9963H54.8335C55.145 67.9565 55.3803 67.7619 55.5293 67.4639C55.6791 67.1642 55.7405 66.7613 55.6999 66.3144C55.6192 65.5894 55.0563 65.0355 54.5072 65.0355H54.3478Z" fill="#30B1E3"/>
<path d="M62.814 75.8502H64.1299C66.2683 75.8502 68.2421 74.6993 69.3935 72.8074C70.9562 70.1756 71.9431 68.8596 71.9431 65.8166C71.9431 59.8951 68.0776 55.5361 63.3897 55.5361C58.7019 55.5361 54.8364 59.8128 54.8364 65.8166C54.8364 68.8596 55.8234 70.1756 57.386 72.8074C58.7019 74.7812 60.6757 75.8502 62.814 75.8502Z" fill="#F2FAFD"/>
<path d="M57.3306 50.0954C57.2685 49.78 57.2229 49.5481 57.2214 49.3762C57.258 48.5952 57.7172 47.9676 58.5363 47.5322C59.3682 47.09 60.5456 46.8665 61.9 46.9309C64.6056 47.0598 67.8887 48.3322 70.2343 51.0355L70.2375 51.0392C70.8688 51.7494 71.3443 52.4606 71.8253 53.3416C72.1576 54.0064 72.4623 54.6207 72.6132 55.2246L72.6166 55.238L72.6208 55.2512C73.4186 57.7242 73.6659 60.775 72.9394 64.5766L72.86 64.8944L73.6578 65.0939L73.7427 64.7538L73.7449 64.7425C74.4949 60.8248 74.2505 57.6328 73.4076 55.0115C73.2312 54.3144 72.8876 53.6273 72.5685 52.989L72.5543 52.9606L72.5508 52.9542C72.0464 52.0295 71.5362 51.2626 70.8538 50.4946C68.3471 47.6067 64.8461 46.2479 61.9391 46.1094C60.4869 46.0403 59.1508 46.2742 58.1502 46.806C57.14 47.343 56.4481 48.2029 56.3993 49.3504L56.399 49.3591V49.3679C56.399 49.628 56.4636 49.9533 56.5236 50.2549C56.5247 50.2604 56.5258 50.2661 56.5269 50.2715C56.5345 50.3097 56.5419 50.3475 56.5492 50.3847C56.6199 50.7473 56.681 51.1056 56.6766 51.439C56.6721 51.7692 56.6033 52.0366 56.4475 52.2425C56.2954 52.4437 56.0197 52.6395 55.4932 52.7484L55.4862 52.7498L55.4794 52.7515C53.8131 53.1568 52.8489 54.1925 52.3663 55.4962C51.8935 56.7738 51.8857 58.2948 52.0637 59.7199C52.2428 61.1524 52.6156 62.5308 52.9412 63.5467C53.1044 64.0559 53.2566 64.4765 53.3682 64.7707C53.4241 64.9178 53.4699 65.0334 53.5019 65.1127C53.5179 65.1524 53.5305 65.183 53.5392 65.204L53.5493 65.2281L53.552 65.2346L53.5531 65.237C53.5531 65.237 53.5532 65.2373 53.9317 65.0764C54.3101 64.9155 54.3101 64.9156 54.3101 64.9156L54.3096 64.9144L54.3076 64.9096L54.2989 64.8888C54.2911 64.8702 54.2796 64.8419 54.2646 64.8048C54.2345 64.7304 54.1908 64.6201 54.1371 64.4787C54.0297 64.1959 53.8825 63.7889 53.7244 63.2958C53.4075 62.307 53.0503 60.9817 52.8798 59.6178C52.7085 58.2467 52.7315 56.8789 53.1376 55.7817C53.5334 54.7124 54.2945 53.8881 55.6671 53.5523C56.3294 53.4139 56.8018 53.1374 57.1035 52.7386C57.4027 52.3431 57.4931 51.8806 57.4989 51.4501C57.5047 51.0227 57.4271 50.5894 57.3564 50.2273C57.3476 50.1818 57.3389 50.1378 57.3306 50.0954Z" fill="#30B1E3"/>
<path d="M59.7332 56.1217C60.8175 55.5379 62.0654 55.2895 63.4732 55.2895C66.3349 55.2895 68.5784 56.4516 70.095 58.2486C71.6102 60.044 72.3968 62.4694 72.3555 64.9949C72.3554 67.8086 71.3629 70.8667 69.7104 73.3456C68.5424 75.1807 66.459 76.2615 64.1311 76.2615H62.8152C59.7314 76.2615 57.6729 74.3634 56.3897 72.0141C55.1073 69.6666 54.5908 66.8563 54.5908 64.9942C54.5908 62.5929 55.336 60.2711 56.7475 58.5274L56.805 58.4565L57.4177 59.0691L57.3666 59.1271C56.1471 60.5092 55.331 62.4633 55.331 64.9942C55.331 66.5052 55.7403 69.1444 56.8848 71.4029C58.0287 73.6602 59.8976 75.5217 62.8152 75.5217H64.1311C67.0074 75.5217 68.8764 73.6602 70.0309 71.4026C71.1857 69.1439 71.6153 66.5047 71.6153 64.9942C71.6153 58.798 66.5624 56.0297 63.4732 56.0297C62.5822 56.0297 61.4433 56.273 60.3025 56.8434L60.245 56.8721L59.6433 56.1701L59.7332 56.1217Z" fill="#30B1E3"/>
<path d="M106.897 100.853H74.9868C74.1644 100.853 73.5059 100.112 73.5059 99.2078V74.6166C73.5059 74.4519 73.5885 74.37 73.7532 74.37H108.048C108.213 74.37 108.296 74.4519 108.296 74.6166V99.1251C108.378 100.112 107.72 100.853 106.897 100.853Z" fill="#F2FAFD"/>
<path d="M76.0557 77.4139V99.1258C76.0557 99.8663 76.5496 100.524 77.2074 100.524H107.062C107.72 100.524 108.213 99.8663 108.213 99.1258V77.4139H76.0557Z" fill="#E2E8FF"/>
<path d="M108.13 74.6166V70.8338C108.13 70.0936 107.637 69.4356 106.979 69.4356H74.9862C74.3284 69.4356 73.8345 70.0936 73.8345 70.8338V74.6166H108.13Z" fill="#F2FAFD"/>
<path fill-rule="evenodd" clip-rule="evenodd" d="M73.4663 70.9159C73.4663 69.956 74.1673 69.1475 75.0702 69.1475H106.981C107.884 69.1475 108.585 69.956 108.585 70.9159V74.7505L108.548 74.7871C108.533 74.8017 108.518 74.8208 108.495 74.8493L108.494 74.8507C108.473 74.8771 108.446 74.91 108.415 74.9408C108.352 75.0037 108.261 75.0695 108.132 75.0695H73.8366C73.7348 75.0695 73.6368 75.0447 73.5644 74.9722C73.4919 74.8998 73.4663 74.801 73.4663 74.6993V70.9159ZM74.9875 69.8877C74.5814 69.8877 74.2068 70.3053 74.2068 70.8336V74.2471H107.679V70.8336C107.679 70.3053 107.305 69.8877 106.899 69.8877H74.9875Z" fill="#30B1E3"/>
<path d="M99.6609 72.4783C99.0031 72.4783 98.4272 71.9026 98.4272 71.2447V67.7904C98.4272 67.1325 99.0031 66.5568 99.6609 66.5568C100.319 66.5568 100.895 67.1325 100.895 67.7904V71.2447C100.895 71.9026 100.401 72.4783 99.6609 72.4783Z" fill="#F2FAFD"/>
<path d="M99.6584 72.7251C98.8359 72.7251 98.0962 72.0672 98.0962 71.2448V67.7905C98.0962 66.9681 98.754 66.3101 99.6584 66.3101C100.481 66.3101 101.221 66.9681 101.221 67.7905V71.2448C101.221 72.0672 100.481 72.7251 99.6584 72.7251ZM99.6584 66.8036C99.0825 66.8036 98.6713 67.2148 98.6713 67.7905V71.2448C98.6713 71.7382 99.0825 72.2317 99.6584 72.2317C100.234 72.2317 100.645 71.8205 100.645 71.2448V67.7905C100.645 67.2148 100.234 66.8036 99.6584 66.8036Z" fill="#30B1E3"/>
<path d="M99.6584 72.7251C98.8359 72.7251 98.0962 72.0672 98.0962 71.2448V67.7905C98.0962 66.9681 98.754 66.3101 99.6584 66.3101C100.481 66.3101 101.221 66.9681 101.221 67.7905V71.2448C101.221 72.0672 100.481 72.7251 99.6584 72.7251ZM99.6584 66.8036C99.0825 66.8036 98.6713 67.2148 98.6713 67.7905V71.2448C98.6713 71.7382 99.0825 72.2317 99.6584 72.2317C100.234 72.2317 100.645 71.8205 100.645 71.2448V67.7905C100.645 67.2148 100.234 66.8036 99.6584 66.8036Z" stroke="#30B1E3" stroke-width="0.3" stroke-miterlimit="10"/>
<path d="M91.0237 72.4783C90.3652 72.4783 89.79 71.9026 89.79 71.2447V67.7904C89.79 67.1325 90.3652 66.5568 91.0237 66.5568C91.6815 66.5568 92.2574 67.1325 92.2574 67.7904V71.2447C92.3393 71.9026 91.7635 72.4783 91.0237 72.4783Z" fill="#F2FAFD"/>
<path d="M91.0236 72.7251C90.2012 72.7251 89.4614 72.0672 89.4614 71.2448V67.7905C89.4614 66.9681 90.1192 66.3101 91.0236 66.3101C91.8461 66.3101 92.5866 66.9681 92.5866 67.7905V71.2448C92.5866 72.0672 91.9287 72.7251 91.0236 72.7251ZM91.0236 66.8036C90.4478 66.8036 90.0366 67.2148 90.0366 67.7905V71.2448C90.0366 71.7382 90.4478 72.2317 91.0236 72.2317C91.5995 72.2317 92.0107 71.8205 92.0107 71.2448V67.7905C92.0107 67.2148 91.5995 66.8036 91.0236 66.8036Z" fill="#30B1E3"/>
<path d="M91.0236 72.7251C90.2012 72.7251 89.4614 72.0672 89.4614 71.2448V67.7905C89.4614 66.9681 90.1192 66.3101 91.0236 66.3101C91.8461 66.3101 92.5866 66.9681 92.5866 67.7905V71.2448C92.5866 72.0672 91.9287 72.7251 91.0236 72.7251ZM91.0236 66.8036C90.4478 66.8036 90.0366 67.2148 90.0366 67.7905V71.2448C90.0366 71.7382 90.4478 72.2317 91.0236 72.2317C91.5995 72.2317 92.0107 71.8205 92.0107 71.2448V67.7905C92.0107 67.2148 91.5995 66.8036 91.0236 66.8036Z" stroke="#30B1E3" stroke-width="0.3" stroke-miterlimit="10"/>
<path d="M82.47 72.725C81.8122 72.725 81.2363 72.1493 81.2363 71.4914V68.0371C81.2363 67.3792 81.8122 66.8035 82.47 66.8035C83.1285 66.8035 83.7036 67.3792 83.7036 68.0371V71.4914C83.7036 72.1493 83.1285 72.725 82.47 72.725Z" fill="#F2FAFD"/>
<path d="M82.4721 72.7251C81.6497 72.7251 80.9092 72.0672 80.9092 71.2448V67.7905C80.9092 66.9681 81.567 66.3101 82.4721 66.3101C83.2945 66.3101 84.0343 66.9681 84.0343 67.7905V71.2448C83.9524 72.0672 83.2945 72.7251 82.4721 72.7251ZM82.4721 66.8036C81.8963 66.8036 81.485 67.2148 81.485 67.7905V71.2448C81.485 71.7382 81.8963 72.2317 82.4721 72.2317C83.0472 72.2317 83.4584 71.8205 83.4584 71.2448V67.7905C83.4584 67.2148 82.9653 66.8036 82.4721 66.8036Z" fill="#30B1E3"/>
<path d="M82.4721 72.7251C81.6497 72.7251 80.9092 72.0672 80.9092 71.2448V67.7905C80.9092 66.9681 81.567 66.3101 82.4721 66.3101C83.2945 66.3101 84.0343 66.9681 84.0343 67.7905V71.2448C83.9524 72.0672 83.2945 72.7251 82.4721 72.7251ZM82.4721 66.8036C81.8963 66.8036 81.485 67.2148 81.485 67.7905V71.2448C81.485 71.7382 81.8963 72.2317 82.4721 72.2317C83.0472 72.2317 83.4584 71.8205 83.4584 71.2448V67.7905C83.4584 67.2148 82.9653 66.8036 82.4721 66.8036Z" stroke="#30B1E3" stroke-width="0.3" stroke-miterlimit="10"/>
<path d="M96.7817 83.9107H93.7385C93.3273 83.9107 92.998 83.5814 92.998 83.1702V80.2097C92.998 79.7985 93.3273 79.4692 93.7385 79.4692H96.7817C97.1929 79.4692 97.5215 79.7985 97.5215 80.2097V83.1702C97.5215 83.5814 97.1929 83.9107 96.7817 83.9107Z" fill="#F2FAFD"/>
<path d="M104.1 83.9107H101.057C100.646 83.9107 100.316 83.5814 100.316 83.1702V80.2097C100.316 79.7985 100.646 79.4692 101.057 79.4692H104.1C104.511 79.4692 104.84 79.7985 104.84 80.2097V83.1702C104.84 83.5814 104.511 83.9107 104.1 83.9107Z" fill="#F2FAFD"/>
<path d="M96.7817 91.3119H93.7385C93.3273 91.3119 92.998 90.9834 92.998 90.5722V87.611C92.998 87.1998 93.3273 86.8712 93.7385 86.8712H96.7817C97.1929 86.8712 97.5215 87.1998 97.5215 87.611V90.4895C97.5215 90.9007 97.1929 91.3119 96.7817 91.3119Z" fill="#F2FAFD"/>
<path d="M89.3781 91.3119H86.3357C85.9245 91.3119 85.5952 90.9834 85.5952 90.5722V87.611C85.5952 87.1998 85.9245 86.8712 86.3357 86.8712H89.3781C89.7894 86.8712 90.1186 87.1998 90.1186 87.611V90.4895C90.1186 90.9007 89.7894 91.3119 89.3781 91.3119Z" fill="#F2FAFD"/>
<path d="M104.1 91.3119H101.057C100.646 91.3119 100.316 90.9834 100.316 90.5722V87.611C100.316 87.1998 100.646 86.8712 101.057 86.8712H104.1C104.511 86.8712 104.84 87.1998 104.84 87.611V90.4895C104.84 90.9007 104.511 91.3119 104.1 91.3119Z" fill="#F2FAFD"/>
<path d="M96.7817 98.632H93.7385C93.3273 98.632 92.998 98.3034 92.998 97.8922V94.931C92.998 94.5198 93.3273 94.1912 93.7385 94.1912H96.7817C97.1929 94.1912 97.5215 94.5198 97.5215 94.931V97.8922C97.5215 98.3034 97.1929 98.632 96.7817 98.632Z" fill="#F2FAFD"/>
<path d="M89.3781 98.632H86.3357C85.9245 98.632 85.5952 98.3034 85.5952 97.8922V94.931C85.5952 94.5198 85.9245 94.1912 86.3357 94.1912H89.3781C89.7894 94.1912 90.1186 94.5198 90.1186 94.931V97.8922C90.1186 98.3034 89.7894 98.632 89.3781 98.632Z" fill="#F2FAFD"/>
<path d="M82.0593 98.632H79.0169C78.6056 98.632 78.2764 98.3034 78.2764 97.8922V94.931C78.2764 94.5198 78.6056 94.1912 79.0169 94.1912H82.0593C82.4705 94.1912 82.7998 94.5198 82.7998 94.931V97.8922C82.7998 98.3034 82.4705 98.632 82.0593 98.632Z" fill="#F2FAFD"/>
<path d="M104.1 98.632H101.057C100.646 98.632 100.316 98.3034 100.316 97.8922V94.931C100.316 94.5198 100.646 94.1912 101.057 94.1912H104.1C104.511 94.1912 104.84 94.5198 104.84 94.931V97.8922C104.84 98.3034 104.511 98.632 104.1 98.632Z" fill="#F2FAFD"/>
<path d="M87.4875 83.828C87.4056 83.828 87.3229 83.828 87.3229 83.7461L86.2538 82.759C86.1719 82.6763 86.1719 82.5124 86.2538 82.3478C86.3358 82.2651 86.5004 82.2651 86.6651 82.3478L87.4875 83.1702L89.6256 81.1141C89.7082 81.0315 89.8729 81.0315 90.0368 81.1141C90.1195 81.1961 90.1195 81.3607 90.0368 81.5254L87.7341 83.828C87.6521 83.828 87.5695 83.828 87.4875 83.828Z" fill="#092290"/>
<path d="M73.5644 74.4264C73.6368 74.3539 73.7348 74.3283 73.8366 74.3283H108.132C108.233 74.3283 108.332 74.3539 108.405 74.4264C108.477 74.4988 108.502 74.5976 108.502 74.6985V81.1544H107.679V75.0688H74.2068V99.2071C74.2068 99.7354 74.5814 100.153 74.9875 100.153H106.899C107.305 100.153 107.679 99.7354 107.679 99.2071V99.0842H107.762V85.2666H108.585V99.2071C108.585 100.167 107.884 100.976 106.981 100.976H75.0702C74.1673 100.976 73.4663 100.167 73.4663 99.2071V74.6985C73.4663 74.5976 73.4919 74.4988 73.5644 74.4264Z" fill="#30B1E3"/>
</svg>
