<svg width="428" height="52" viewBox="0 0 428 52" fill="none" xmlns="http://www.w3.org/2000/svg">
<path d="M24.6757 30.1514H19.3243C8.66919 30.1514 0 38.9429 0 49.7498C0 49.8306 0.00237827 49.9102 0.00535125 49.9898L0.0386484 51.8604H43.9619L43.9952 49.9898C43.9976 49.9102 44 49.8306 44 49.7498C44 38.9429 35.3314 30.1514 24.6757 30.1514ZM3.63714 48.2422C4.38811 40.1351 11.1368 33.7695 19.3243 33.7695H24.6757C32.8632 33.7695 39.6113 40.1351 40.3629 48.2422H3.63714ZM22 28.9453C29.213 28.9453 35.0811 22.994 35.0811 15.6787V13.2666C35.0811 12.1643 34.9455 11.0933 34.6946 10.0687C34.6922 10.0555 34.6886 10.0428 34.6857 10.0296C33.2569 4.27365 28.1118 0 22 0C18.9301 0 16.1058 1.08063 13.8719 2.88307C13.8469 2.89996 13.8255 2.92106 13.8011 2.93976C10.8264 5.37358 8.91892 9.09727 8.91892 13.2666V15.6787C8.91892 22.994 14.787 28.9453 22 28.9453ZM22 3.61816C25.5509 3.61816 28.6482 5.60454 30.2827 8.53585C22.8711 8.16258 18.3361 6.30405 17.0429 5.04734C18.4889 4.14702 20.1823 3.61816 22 3.61816ZM12.4865 13.2666C12.4865 11.0921 13.2083 9.08943 14.41 7.47452C17.292 10.5053 24.4141 12.0195 31.4535 12.2065C31.4909 12.5544 31.5135 12.9078 31.5135 13.2666V15.6787C31.5135 20.9986 27.2455 25.3271 22 25.3271C16.7545 25.3271 12.4865 20.9986 12.4865 15.6787V13.2666ZM28.5405 37.3877H26.1622C25.1769 37.3877 24.3784 38.1976 24.3784 39.1968C24.3784 40.196 25.1769 41.0059 26.1622 41.0059H28.5405C29.5258 41.0059 30.3243 40.196 30.3243 39.1968C30.3243 38.1976 29.5258 37.3877 28.5405 37.3877ZM17.6892 17.1863C18.5924 17.1863 19.3243 16.444 19.3243 15.528C19.3243 14.612 18.5924 13.8696 17.6892 13.8696C16.786 13.8696 16.0541 14.612 16.0541 15.528C16.0541 16.444 16.786 17.1863 17.6892 17.1863ZM26.0135 17.1863C26.9167 17.1863 27.6486 16.444 27.6486 15.528C27.6486 14.612 26.9167 13.8696 26.0135 13.8696C25.1103 13.8696 24.3784 14.612 24.3784 15.528C24.3784 16.444 25.1103 17.1863 26.0135 17.1863Z" fill="#212121" fill-opacity="0.7"/>
<path d="M88.6757 30.1519H83.3243C72.6692 30.1519 64 38.9436 64 49.7507C64 49.8315 64.0024 49.9111 64.0054 49.9907L64.0386 51.8613H107.962L107.995 49.9907C107.998 49.9111 108 49.8315 108 49.7507C108 38.9436 99.3314 30.1519 88.6757 30.1519ZM67.6371 48.2431C68.3881 40.1358 75.1368 33.7702 83.3243 33.7702H88.6757C96.8632 33.7702 103.611 40.1358 104.363 48.2431H67.6371ZM86 28.9459C93.213 28.9459 99.0811 22.9945 99.0811 15.679V13.2669C99.0811 12.1645 98.9455 11.0935 98.6946 10.0689C98.6922 10.0557 98.6886 10.043 98.6857 10.0297C97.2569 4.27374 92.1118 0 86 0C82.9301 0 80.1058 1.08065 77.8719 2.88313C77.8469 2.90001 77.8255 2.92112 77.8011 2.93981C74.8264 5.37368 72.9189 9.09744 72.9189 13.2669V15.679C72.9189 22.9945 78.787 28.9459 86 28.9459ZM86 3.61823C89.5509 3.61823 92.6482 5.60464 94.2827 8.53601C86.8711 8.16273 82.3361 6.30417 81.0429 5.04743C82.4889 4.1471 84.1823 3.61823 86 3.61823ZM76.4865 13.2669C76.4865 11.0923 77.2083 9.0896 78.41 7.47467C81.292 10.5055 88.4141 12.0198 95.4535 12.2067C95.4909 12.5547 95.5135 12.908 95.5135 13.2669V15.679C95.5135 20.999 91.2455 25.3276 86 25.3276C80.7545 25.3276 76.4865 20.999 76.4865 15.679V13.2669ZM92.5405 37.3884H90.1622C89.1769 37.3884 88.3784 38.1983 88.3784 39.1975C88.3784 40.1968 89.1769 41.0066 90.1622 41.0066H92.5405C93.5258 41.0066 94.3243 40.1968 94.3243 39.1975C94.3243 38.1983 93.5258 37.3884 92.5405 37.3884ZM81.6892 17.1866C82.5924 17.1866 83.3243 16.4443 83.3243 15.5282C83.3243 14.6122 82.5924 13.8699 81.6892 13.8699C80.786 13.8699 80.0541 14.6122 80.0541 15.5282C80.0541 16.4443 80.786 17.1866 81.6892 17.1866ZM90.0135 17.1866C90.9167 17.1866 91.6486 16.4443 91.6486 15.5282C91.6486 14.6122 90.9167 13.8699 90.0135 13.8699C89.1103 13.8699 88.3784 14.6122 88.3784 15.5282C88.3784 16.4443 89.1103 17.1866 90.0135 17.1866Z" fill="#212121" fill-opacity="0.7"/>
<path d="M152.676 30.1497H147.324C136.669 30.1497 128 38.9407 128 49.7469C128 49.8277 128.002 49.9073 128.005 49.9869L128.039 51.8574H171.962L171.995 49.9869C171.998 49.9073 172 49.8277 172 49.7469C172 38.9407 163.331 30.1497 152.676 30.1497ZM131.637 48.2395C132.388 40.1328 139.137 33.7676 147.324 33.7676H152.676C160.863 33.7676 167.611 40.1328 168.363 48.2395H131.637ZM150 28.9437C157.213 28.9437 163.081 22.9927 163.081 15.6778V13.2659C163.081 12.1636 162.945 11.0927 162.695 10.0682C162.692 10.0549 162.689 10.0422 162.686 10.029C161.257 4.27341 156.112 0 150 0C146.93 0 144.106 1.08056 141.872 2.88291C141.847 2.89979 141.826 2.9209 141.801 2.93959C138.826 5.37327 136.919 9.09676 136.919 13.2659V15.6778C136.919 22.9927 142.787 28.9437 150 28.9437ZM150 3.61796C153.551 3.61796 156.648 5.60422 158.283 8.53537C150.871 8.16212 146.336 6.30369 145.043 5.04705C146.489 4.14679 148.182 3.61796 150 3.61796ZM140.486 13.2659C140.486 11.0915 141.208 9.08892 142.41 7.4741C145.292 10.5047 152.414 12.0189 159.453 12.2058C159.491 12.5537 159.514 12.9071 159.514 13.2659V15.6778C159.514 20.9974 155.246 25.3257 150 25.3257C144.754 25.3257 140.486 20.9974 140.486 15.6778V13.2659ZM156.541 37.3856H154.162C153.177 37.3856 152.378 38.1954 152.378 39.1946C152.378 40.1937 153.177 41.0035 154.162 41.0035H156.541C157.526 41.0035 158.324 40.1937 158.324 39.1946C158.324 38.1954 157.526 37.3856 156.541 37.3856ZM145.689 17.1853C146.592 17.1853 147.324 16.443 147.324 15.5271C147.324 14.6111 146.592 13.8688 145.689 13.8688C144.786 13.8688 144.054 14.6111 144.054 15.5271C144.054 16.443 144.786 17.1853 145.689 17.1853ZM154.014 17.1853C154.917 17.1853 155.649 16.443 155.649 15.5271C155.649 14.6111 154.917 13.8688 154.014 13.8688C153.11 13.8688 152.378 14.6111 152.378 15.5271C152.378 16.443 153.11 17.1853 154.014 17.1853Z" fill="#212121" fill-opacity="0.7"/>
<path d="M216.676 30.1519H211.324C200.669 30.1519 192 38.9436 192 49.7507C192 49.8315 192.002 49.9111 192.005 49.9907L192.039 51.8613H235.962L235.995 49.9907C235.998 49.9111 236 49.8315 236 49.7507C236 38.9436 227.331 30.1519 216.676 30.1519ZM195.637 48.2431C196.388 40.1358 203.137 33.7702 211.324 33.7702H216.676C224.863 33.7702 231.611 40.1358 232.363 48.2431H195.637ZM214 28.9459C221.213 28.9459 227.081 22.9945 227.081 15.679V13.2669C227.081 12.1645 226.946 11.0935 226.695 10.0689C226.692 10.0557 226.689 10.043 226.686 10.0297C225.257 4.27374 220.112 0 214 0C210.93 0 208.106 1.08065 205.872 2.88313C205.847 2.90001 205.826 2.92112 205.801 2.93981C202.826 5.37368 200.919 9.09744 200.919 13.2669V15.679C200.919 22.9945 206.787 28.9459 214 28.9459ZM214 3.61823C217.551 3.61823 220.648 5.60464 222.283 8.53601C214.871 8.16273 210.336 6.30417 209.043 5.04743C210.489 4.1471 212.182 3.61823 214 3.61823ZM204.486 13.2669C204.486 11.0923 205.208 9.0896 206.41 7.47467C209.292 10.5055 216.414 12.0198 223.453 12.2067C223.491 12.5547 223.514 12.908 223.514 13.2669V15.679C223.514 20.999 219.246 25.3276 214 25.3276C208.754 25.3276 204.486 20.999 204.486 15.679V13.2669ZM220.541 37.3884H218.162C217.177 37.3884 216.378 38.1983 216.378 39.1975C216.378 40.1968 217.177 41.0066 218.162 41.0066H220.541C221.526 41.0066 222.324 40.1968 222.324 39.1975C222.324 38.1983 221.526 37.3884 220.541 37.3884ZM209.689 17.1866C210.592 17.1866 211.324 16.4443 211.324 15.5282C211.324 14.6122 210.592 13.8699 209.689 13.8699C208.786 13.8699 208.054 14.6122 208.054 15.5282C208.054 16.4443 208.786 17.1866 209.689 17.1866ZM218.014 17.1866C218.917 17.1866 219.649 16.4443 219.649 15.5282C219.649 14.6122 218.917 13.8699 218.014 13.8699C217.11 13.8699 216.378 14.6122 216.378 15.5282C216.378 16.4443 217.11 17.1866 218.014 17.1866Z" fill="#212121" fill-opacity="0.7"/>
<circle cx="223.773" cy="33.557" r="3" stroke="#212121" stroke-opacity="0.7" stroke-width="4"/>
<path d="M280.676 30.1519H275.324C264.669 30.1519 256 38.9436 256 49.7507C256 49.8315 256.002 49.9111 256.005 49.9907L256.039 51.8613H299.962L299.995 49.9907C299.998 49.9111 300 49.8315 300 49.7507C300 38.9436 291.331 30.1519 280.676 30.1519ZM259.637 48.2431C260.388 40.1358 267.137 33.7702 275.324 33.7702H280.676C288.863 33.7702 295.611 40.1358 296.363 48.2431H259.637ZM278 28.9459C285.213 28.9459 291.081 22.9945 291.081 15.679V13.2669C291.081 12.1645 290.946 11.0935 290.695 10.0689C290.692 10.0557 290.689 10.043 290.686 10.0297C289.257 4.27374 284.112 0 278 0C274.93 0 272.106 1.08065 269.872 2.88313C269.847 2.90001 269.826 2.92112 269.801 2.93981C266.826 5.37368 264.919 9.09744 264.919 13.2669V15.679C264.919 22.9945 270.787 28.9459 278 28.9459ZM278 3.61823C281.551 3.61823 284.648 5.60464 286.283 8.53601C278.871 8.16273 274.336 6.30417 273.043 5.04743C274.489 4.1471 276.182 3.61823 278 3.61823ZM268.486 13.2669C268.486 11.0923 269.208 9.0896 270.41 7.47467C273.292 10.5055 280.414 12.0198 287.453 12.2067C287.491 12.5547 287.514 12.908 287.514 13.2669V15.679C287.514 20.999 283.246 25.3276 278 25.3276C272.754 25.3276 268.486 20.999 268.486 15.679V13.2669ZM284.541 37.3884H282.162C281.177 37.3884 280.378 38.1983 280.378 39.1975C280.378 40.1968 281.177 41.0066 282.162 41.0066H284.541C285.526 41.0066 286.324 40.1968 286.324 39.1975C286.324 38.1983 285.526 37.3884 284.541 37.3884ZM273.689 17.1866C274.592 17.1866 275.324 16.4443 275.324 15.5282C275.324 14.6122 274.592 13.8699 273.689 13.8699C272.786 13.8699 272.054 14.6122 272.054 15.5282C272.054 16.4443 272.786 17.1866 273.689 17.1866ZM282.014 17.1866C282.917 17.1866 283.649 16.4443 283.649 15.5282C283.649 14.6122 282.917 13.8699 282.014 13.8699C281.11 13.8699 280.378 14.6122 280.378 15.5282C280.378 16.4443 281.11 17.1866 282.014 17.1866Z" fill="#212121" fill-opacity="0.7"/>
<circle cx="287.773" cy="33.557" r="3" stroke="#212121" stroke-opacity="0.7" stroke-width="4"/>
<path d="M344.676 30.1519H339.324C328.669 30.1519 320 38.9436 320 49.7507C320 49.8315 320.002 49.9111 320.005 49.9907L320.039 51.8613H363.962L363.995 49.9907C363.998 49.9111 364 49.8315 364 49.7507C364 38.9436 355.331 30.1519 344.676 30.1519ZM323.637 48.2431C324.388 40.1358 331.137 33.7702 339.324 33.7702H344.676C352.863 33.7702 359.611 40.1358 360.363 48.2431H323.637ZM342 28.9459C349.213 28.9459 355.081 22.9945 355.081 15.679V13.2669C355.081 12.1645 354.946 11.0935 354.695 10.0689C354.692 10.0557 354.689 10.043 354.686 10.0297C353.257 4.27374 348.112 0 342 0C338.93 0 336.106 1.08065 333.872 2.88313C333.847 2.90001 333.826 2.92112 333.801 2.93981C330.826 5.37368 328.919 9.09744 328.919 13.2669V15.679C328.919 22.9945 334.787 28.9459 342 28.9459ZM342 3.61823C345.551 3.61823 348.648 5.60464 350.283 8.53601C342.871 8.16273 338.336 6.30417 337.043 5.04743C338.489 4.1471 340.182 3.61823 342 3.61823ZM332.486 13.2669C332.486 11.0923 333.208 9.0896 334.41 7.47467C337.292 10.5055 344.414 12.0198 351.453 12.2067C351.491 12.5547 351.514 12.908 351.514 13.2669V15.679C351.514 20.999 347.246 25.3276 342 25.3276C336.754 25.3276 332.486 20.999 332.486 15.679V13.2669ZM348.541 37.3884H346.162C345.177 37.3884 344.378 38.1983 344.378 39.1975C344.378 40.1968 345.177 41.0066 346.162 41.0066H348.541C349.526 41.0066 350.324 40.1968 350.324 39.1975C350.324 38.1983 349.526 37.3884 348.541 37.3884ZM337.689 17.1866C338.592 17.1866 339.324 16.4443 339.324 15.5282C339.324 14.6122 338.592 13.8699 337.689 13.8699C336.786 13.8699 336.054 14.6122 336.054 15.5282C336.054 16.4443 336.786 17.1866 337.689 17.1866ZM346.014 17.1866C346.917 17.1866 347.649 16.4443 347.649 15.5282C347.649 14.6122 346.917 13.8699 346.014 13.8699C345.11 13.8699 344.378 14.6122 344.378 15.5282C344.378 16.4443 345.11 17.1866 346.014 17.1866Z" fill="#212121" fill-opacity="0.7"/>
<circle cx="351.773" cy="33.557" r="3" stroke="#212121" stroke-opacity="0.7" stroke-width="4"/>
<path d="M408.676 30.1519H403.324C392.669 30.1519 384 38.9436 384 49.7507C384 49.8315 384.002 49.9111 384.005 49.9907L384.039 51.8613H427.962L427.995 49.9907C427.998 49.9111 428 49.8315 428 49.7507C428 38.9436 419.331 30.1519 408.676 30.1519ZM387.637 48.2431C388.388 40.1358 395.137 33.7702 403.324 33.7702H408.676C416.863 33.7702 423.611 40.1358 424.363 48.2431H387.637ZM406 28.9459C413.213 28.9459 419.081 22.9945 419.081 15.679V13.2669C419.081 12.1645 418.946 11.0935 418.695 10.0689C418.692 10.0557 418.689 10.043 418.686 10.0297C417.257 4.27374 412.112 0 406 0C402.93 0 400.106 1.08065 397.872 2.88313C397.847 2.90001 397.826 2.92112 397.801 2.93981C394.826 5.37368 392.919 9.09744 392.919 13.2669V15.679C392.919 22.9945 398.787 28.9459 406 28.9459ZM406 3.61823C409.551 3.61823 412.648 5.60464 414.283 8.53601C406.871 8.16273 402.336 6.30417 401.043 5.04743C402.489 4.1471 404.182 3.61823 406 3.61823ZM396.486 13.2669C396.486 11.0923 397.208 9.0896 398.41 7.47467C401.292 10.5055 408.414 12.0198 415.453 12.2067C415.491 12.5547 415.514 12.908 415.514 13.2669V15.679C415.514 20.999 411.246 25.3276 406 25.3276C400.754 25.3276 396.486 20.999 396.486 15.679V13.2669ZM412.541 37.3884H410.162C409.177 37.3884 408.378 38.1983 408.378 39.1975C408.378 40.1968 409.177 41.0066 410.162 41.0066H412.541C413.526 41.0066 414.324 40.1968 414.324 39.1975C414.324 38.1983 413.526 37.3884 412.541 37.3884ZM401.689 17.1866C402.592 17.1866 403.324 16.4443 403.324 15.5282C403.324 14.6122 402.592 13.8699 401.689 13.8699C400.786 13.8699 400.054 14.6122 400.054 15.5282C400.054 16.4443 400.786 17.1866 401.689 17.1866ZM410.014 17.1866C410.917 17.1866 411.649 16.4443 411.649 15.5282C411.649 14.6122 410.917 13.8699 410.014 13.8699C409.11 13.8699 408.378 14.6122 408.378 15.5282C408.378 16.4443 409.11 17.1866 410.014 17.1866Z" fill="#212121" fill-opacity="0.7"/>
<circle cx="415.773" cy="33.557" r="3" stroke="#212121" stroke-opacity="0.7" stroke-width="4"/>
</svg>
