<svg width="150" height="151" viewBox="0 0 150 151" fill="none" xmlns="http://www.w3.org/2000/svg">
<path d="M74.2682 135.741C107.607 135.741 134.634 108.64 134.634 75.208C134.634 41.7764 107.607 14.6747 74.2682 14.6747C40.9291 14.6747 13.9023 41.7764 13.9023 75.208C13.9023 108.64 40.9291 135.741 74.2682 135.741Z" fill="#F2FAFD"/>
<path d="M64.992 49.4013H60.0718C59.7824 49.4013 59.5479 49.6365 59.5479 49.9267C59.5479 50.2169 59.7824 50.4522 60.0718 50.4522H64.992C65.2814 50.4522 65.516 50.2169 65.516 49.9267C65.516 49.6365 65.2814 49.4013 64.992 49.4013Z" fill="#30B1E3"/>
<path d="M97.9801 72.4932H93.7797C93.4896 72.4932 93.2544 72.729 93.2544 73.0199V73.0199C93.2544 73.3109 93.4896 73.5467 93.7797 73.5467H97.9801C98.2703 73.5467 98.5055 73.3109 98.5055 73.0199V73.0199C98.5055 72.729 98.2703 72.4932 97.9801 72.4932Z" fill="#30B1E3"/>
<path d="M50.6074 64.4061C50.6074 61.9748 52.573 60.0037 54.9977 60.0037H77.7766V95.6712C77.7766 97.697 76.139 99.3398 74.1181 99.3398H54.9977C52.573 99.3398 50.6074 97.369 50.6074 94.9374V64.4061Z" fill="#F2FAFD"/>
<path d="M78.2255 65.0521H54.6558V93.8537H78.2255V65.0521Z" fill="#DBF1FA"/>
<path d="M67.5099 62.1469H61.2406C60.9232 62.1469 60.6851 62.3129 60.6851 62.5619C60.6851 62.8109 60.9232 62.9769 61.2406 62.9769H67.5099C67.8273 62.9769 68.0654 62.8109 68.0654 62.5619C68.0654 62.3129 67.8273 62.1469 67.5099 62.1469Z" fill="#30B1E3"/>
<path d="M62.591 96.6764C62.2736 95.5141 63.3052 94.5184 64.4162 94.8501C64.8924 95.0166 65.2892 95.3483 65.3685 95.8465C65.686 97.0087 64.6543 98.0044 63.5433 97.6728C63.0672 97.5891 62.7497 97.1746 62.591 96.6764Z" fill="#DBF1FA"/>
<path d="M76.3981 59.6575H52.4322C51.4005 59.6575 50.6069 60.4875 50.6069 61.4835V69.9498H51.1624V61.4835C51.1624 60.8195 51.718 60.2385 52.4322 60.2385H76.3191C77.0332 60.2385 77.5886 60.8195 77.5886 61.4835V97.8386C77.5886 98.5026 77.0332 99.0838 76.3191 99.0838H52.4322C51.718 99.0838 51.1624 98.5026 51.1624 97.8386V76.7562H50.6862V97.8386C50.6862 98.835 51.4799 99.6649 52.5115 99.6649H76.3981C77.4298 99.6649 78.2237 98.835 78.2237 97.8386V61.4835C78.1447 60.4875 77.3508 59.6575 76.3981 59.6575Z" fill="#30B1E3"/>
<path fill-rule="evenodd" clip-rule="evenodd" d="M52.4321 59.5319C51.3382 59.5319 50.4878 60.4141 50.4878 61.4825V70.0732H51.2814V61.4825C51.2814 60.8923 51.7785 60.3619 52.4321 60.3619H76.3193C76.9727 60.3619 77.4695 60.8923 77.4695 61.4825V97.8379C77.4695 98.4278 76.9727 98.9583 76.3193 98.9583H52.4321C51.7785 98.9583 51.2814 98.4278 51.2814 97.8379V76.6307H50.5672V97.8379C50.5672 98.9062 51.4175 99.7881 52.5114 99.7881H76.3983C77.4922 99.7881 78.3424 98.9062 78.3424 97.8379V61.4825V61.4721C78.2583 60.4175 77.4183 59.5319 76.3983 59.5319H52.4321ZM50.7259 61.4825C50.7259 60.5588 51.4626 59.7809 52.4321 59.7809H76.3983C77.2815 59.7809 78.0278 60.5525 78.1046 61.4877V97.8379C78.1046 98.7616 77.3678 99.5394 76.3983 99.5394H52.5114C51.542 99.5394 50.8052 98.7616 50.8052 97.8379V76.8794H51.0433V97.8379C51.0433 98.5753 51.6571 99.207 52.4321 99.207H76.3193C77.0941 99.207 77.708 98.5753 77.708 97.8379V61.4825C77.708 60.7445 77.0941 60.1129 76.3193 60.1129H52.4321C51.6571 60.1129 51.0433 60.7445 51.0433 61.4825V69.8242H50.7259V61.4825Z" fill="#30B1E3"/>
<path d="M82.985 79.5774C82.906 79.5774 82.7472 79.4945 82.7472 79.4945C82.1911 78.8304 70.1289 65.1351 70.1289 57.9969C70.1289 50.6927 75.9218 44.7994 82.985 44.7994C90.0482 44.7994 95.8411 50.6927 95.8411 57.9969C95.8411 65.1351 83.7789 78.8304 83.2228 79.4115C83.2228 79.4944 83.1438 79.5774 82.985 79.5774Z" fill="#F2FAFD"/>
<path d="M82.9844 45.6299C76.3186 45.6299 70.8428 51.1911 70.8428 58.0803C70.8428 64.3885 81.1596 76.5896 82.9844 78.6653C84.81 76.5896 95.1264 64.3055 95.1264 58.0803C95.1264 51.1911 89.73 45.6299 82.9844 45.6299Z" fill="#F2FAFD"/>
<path d="M95.523 59.4086C94.8886 66.7129 83.0635 79.2465 83.0635 79.2465C83.0635 79.2465 71.7949 66.4638 71.7949 59.4086C71.7949 52.3533 76.7152 46.3771 84.3337 46.5432C91.2381 46.7921 96.0784 52.3533 95.523 59.4086Z" fill="#E2E8FF"/>
<path d="M82.9867 79.5774C82.9069 79.5774 82.7481 79.4945 82.7481 79.4945C82.1928 78.8304 70.1304 65.1351 70.1304 57.9969C70.1304 50.6927 75.9235 44.7994 82.9867 44.7994C90.0491 44.7994 95.8428 50.6927 95.8428 57.9969C95.8428 65.1351 83.7799 78.8304 83.2245 79.4115C83.2245 79.4944 83.1455 79.5774 82.9867 79.5774ZM82.9867 45.6295C76.3201 45.6295 70.8446 51.1907 70.8446 58.0799C70.8446 64.3881 81.1611 76.5896 82.9867 78.6646C84.8116 76.5896 95.1286 64.3051 95.1286 58.0799C95.1286 51.1907 89.7323 45.6295 82.9867 45.6295Z" fill="#30B1E3"/>
<path fill-rule="evenodd" clip-rule="evenodd" d="M82.9859 45.5879C76.2988 45.5879 70.8042 51.1668 70.8042 58.0798C70.8042 59.6669 71.4525 61.6194 72.4489 63.6843C73.4459 65.7504 74.7937 67.9337 76.1978 69.9837C79.0069 74.0839 82.0434 77.6542 82.9566 78.6925L82.9859 78.7255L83.0152 78.6925C83.9283 77.6542 86.9649 74.0633 89.7732 69.9526C91.1773 67.8974 92.5252 65.7114 93.5225 63.6493C94.5191 61.5884 95.1673 59.6462 95.1673 58.0798C95.1673 51.1669 89.7527 45.5879 82.9859 45.5879ZM70.8835 58.0798C70.8835 51.2144 76.3405 45.671 82.9859 45.671C89.7103 45.671 95.0876 51.2143 95.0876 58.0798C95.0876 59.626 94.4466 61.5538 93.4515 63.6119C92.4571 65.6688 91.1115 67.8509 89.7088 69.9043C86.932 73.9687 83.932 77.5251 82.9859 78.6029C82.0398 77.5251 79.0391 73.9892 76.2622 69.9354C74.8595 67.8872 73.5139 65.7077 72.5198 63.6469C71.5248 61.585 70.8835 59.6468 70.8835 58.0798Z" fill="#30B1E3"/>
<path fill-rule="evenodd" clip-rule="evenodd" d="M82.7297 79.5319L82.7318 79.5326L82.737 79.5356L82.7567 79.5451C82.7736 79.5532 82.7962 79.5642 82.8218 79.5745C82.8475 79.5855 82.876 79.5965 82.9038 79.6045C82.9309 79.6126 82.9601 79.6192 82.9857 79.6192C83.146 79.6192 83.2521 79.537 83.2623 79.4299C83.6033 79.0667 86.7218 75.5279 89.7731 71.1877C91.3162 68.9924 92.8426 66.5912 93.9833 64.2918C95.1233 61.9935 95.8814 59.7917 95.8814 57.9969C95.8814 50.6688 90.0694 44.7579 82.9857 44.7579C75.9014 44.7579 70.0898 50.6688 70.0898 57.9969C70.0898 59.7917 70.8475 61.9935 71.9877 64.293C73.1286 66.5938 74.6553 68.9976 76.1984 71.198C78.9957 75.1874 81.8509 78.512 82.5672 79.3455C82.6404 79.4314 82.6916 79.4908 82.7179 79.5216L82.7231 79.5282L82.7297 79.5319ZM70.1692 57.9969C70.1692 50.7164 75.9438 44.8409 82.9857 44.8409C90.0277 44.8409 95.8023 50.7164 95.8023 57.9969C95.8023 59.7711 95.0516 61.9581 93.9131 64.2535C92.7745 66.5477 91.2511 68.9451 89.7087 71.1385C86.6253 75.5257 83.4716 79.0931 83.1957 79.3822L83.184 79.3947V79.4116C83.184 79.4615 83.1336 79.5363 82.9857 79.5363C82.9711 79.5363 82.9506 79.5319 82.9257 79.5246C82.9016 79.5172 82.8753 79.5077 82.8518 79.4974C82.8277 79.4871 82.8057 79.4776 82.7904 79.4695L82.7721 79.4607C82.745 79.4284 82.696 79.3712 82.6265 79.2912L82.6257 79.2905C81.9094 78.4555 79.0572 75.1346 76.2621 71.149C74.7204 68.9503 73.1962 66.5503 72.0581 64.2548C70.9193 61.9581 70.1692 59.7711 70.1692 57.9969Z" fill="#30B1E3"/>
<path d="M82.986 65.7166C87.1502 65.7166 90.5256 62.2605 90.5256 57.9973C90.5256 53.7341 87.1502 50.2781 82.986 50.2781C78.8226 50.2781 75.4473 53.7341 75.4473 57.9973C75.4473 62.2605 78.8226 65.7166 82.986 65.7166Z" fill="#F2FAFD"/>
<path d="M82.985 66.1311C78.6196 66.1311 75.1279 62.479 75.1279 58.0799C75.1279 53.5977 78.6994 50.0286 82.985 50.0286C87.3496 50.0286 90.8413 53.6807 90.8413 58.0799C90.9204 62.479 87.3496 66.1311 82.985 66.1311Z" fill="#F2FAFD"/>
<path d="M82.9843 49.9455C82.8262 49.9455 82.6674 49.9455 82.5877 49.9455V50.6925C82.7465 50.6925 82.8262 50.6925 82.9843 50.6925C86.9523 50.6925 90.1272 54.0126 90.1272 57.9967C90.1272 62.0639 86.9523 65.301 82.9843 65.301C79.017 65.301 75.8421 61.9808 75.8421 57.9967C75.8421 56.1707 76.557 54.4276 77.6677 53.1826L77.1913 52.6015C75.9218 54.0126 75.1279 55.9216 75.1279 58.0797C75.1279 62.5619 78.6994 66.131 82.9843 66.131C87.3496 66.131 90.8413 62.4789 90.8413 58.0797C90.8413 53.6806 87.3496 49.9455 82.9843 49.9455Z" fill="#30B1E3"/>
<path d="M61.0112 65.0536L62.9124 74.5638L66.344 74.0626C66.3932 74.2798 66.4563 74.5946 66.5127 74.9901C66.6281 75.8001 66.7149 76.9433 66.5993 78.2735C66.3686 80.9282 65.3328 84.3283 62.0896 87.3168L61.6084 87.7607L66.9443 90.028L65.7027 94.2294L66.4609 94.4744L67.9174 89.5452L63.0828 87.4907C66.1395 84.4472 67.1557 81.0397 67.3896 78.3491C67.512 76.9403 67.4203 75.7289 67.2976 74.8675C67.2362 74.4368 67.1669 74.0934 67.1125 73.855C67.0852 73.7361 67.0616 73.6437 67.0446 73.5791C67.036 73.5475 67.0292 73.5226 67.0243 73.505L67.0183 73.4852L67.0166 73.4793L67.0161 73.4771L67.0158 73.4764C67.0158 73.4764 67.0157 73.4756 66.6373 73.6011L67.0157 73.4756L66.9146 73.1414L63.5374 73.6341L61.788 64.8837L61.0112 65.0536Z" fill="#F2FAFD"/>
<path d="M51.083 65.3841H73.1446V64.5541H51.083V65.3841Z" fill="#30B1E3"/>
<path d="M62.988 89.372C63.8646 89.372 64.5752 88.6288 64.5752 87.7123C64.5752 86.7952 63.8646 86.0519 62.988 86.0519C62.1114 86.0519 61.4009 86.7952 61.4009 87.7123C61.4009 88.6288 62.1114 89.372 62.988 89.372Z" fill="#F2FAFD"/>
<path fill-rule="evenodd" clip-rule="evenodd" d="M62.987 85.6373C61.8912 85.6373 61.0029 86.5662 61.0029 87.7115C61.0029 88.8576 61.8912 89.7866 62.987 89.7866C64.0827 89.7866 64.9709 88.8576 64.9709 87.7115C64.9709 86.5662 64.0827 85.6373 62.987 85.6373ZM61.7965 87.7115C61.7965 87.024 62.3295 86.4671 62.987 86.4671C63.6444 86.4671 64.1773 87.024 64.1773 87.7115C64.1773 88.3991 63.6444 88.9567 62.987 88.9567C62.3295 88.9567 61.7965 88.3991 61.7965 87.7115Z" fill="#092290"/>
<path opacity="0.35" d="M74.9999 150.049C116.219 150.049 149.634 116.542 149.634 75.208C149.634 33.8744 116.219 0.366882 74.9999 0.366882C33.7806 0.366882 0.365723 33.8744 0.365723 75.208C0.365723 116.542 33.7806 150.049 74.9999 150.049Z" stroke="#F2FAFD" stroke-dasharray="2 4"/>
</svg>
