<svg width="23" height="23" viewBox="0 0 23 23" fill="none" xmlns="http://www.w3.org/2000/svg">
<g clip-path="url(#clip0_118_176)">
<path d="M11.2502 8.30408C10.2777 8.30408 9.34507 8.69039 8.65744 9.37802C7.9698 10.0657 7.5835 10.9983 7.5835 11.9707C7.5835 12.9432 7.9698 13.8758 8.65744 14.5635C9.34507 15.2511 10.2777 15.6374 11.2502 15.6374C12.2226 15.6374 13.1553 15.2511 13.8429 14.5635C14.5305 13.8758 14.9168 12.9432 14.9168 11.9707C14.9168 10.9983 14.5305 10.0657 13.8429 9.37802C13.1553 8.69039 12.2226 8.30408 11.2502 8.30408Z" fill="#212121"/>
<path fill-rule="evenodd" clip-rule="evenodd" d="M6.85024 0.970703C5.09982 0.970703 3.42108 1.66606 2.18334 2.9038C0.945599 4.14154 0.250244 5.82027 0.250244 7.5707L0.250244 16.3707C0.250244 18.1211 0.945599 19.7999 2.18334 21.0376C3.42108 22.2753 5.09982 22.9707 6.85024 22.9707H15.6502C17.4007 22.9707 19.0794 22.2753 20.3171 21.0376C21.5549 19.7999 22.2502 18.1211 22.2502 16.3707V7.5707C22.2502 5.82027 21.5549 4.14154 20.3171 2.9038C19.0794 1.66606 17.4007 0.970703 15.6502 0.970703L6.85024 0.970703ZM6.11691 11.9707C6.11691 10.6093 6.65774 9.30358 7.62043 8.34089C8.58312 7.3782 9.8888 6.83737 11.2502 6.83737C12.6117 6.83737 13.9174 7.3782 14.8801 8.34089C15.8427 9.30358 16.3836 10.6093 16.3836 11.9707C16.3836 13.3321 15.8427 14.6378 14.8801 15.6005C13.9174 16.5632 12.6117 17.104 11.2502 17.104C9.8888 17.104 8.58312 16.5632 7.62043 15.6005C6.65774 14.6378 6.11691 13.3321 6.11691 11.9707ZM16.3836 6.83737H17.8502V5.3707H16.3836V6.83737Z" fill="#212121"/>
</g>
<defs>
<clipPath id="clip0_118_176">
<rect width="22" height="22" fill="white" transform="translate(0.250244 0.970703)"/>
</clipPath>
</defs>
</svg>
