<svg width="23" height="23" viewBox="0 0 23 23" fill="none" xmlns="http://www.w3.org/2000/svg">
<g clip-path="url(#clip0_116_132)">
<path fill-rule="evenodd" clip-rule="evenodd" d="M20.1605 22.9707H3.04942C1.6994 22.9707 0.60498 21.8763 0.60498 20.5263V3.41515C0.60498 2.06512 1.6994 0.970703 3.04942 0.970703H20.1605C21.5106 0.970703 22.605 2.06512 22.605 3.41515V20.5263C22.605 21.8763 21.5106 22.9707 20.1605 22.9707ZM16.2839 19.9152H19.5486V13.2086C19.5486 10.371 17.94 8.99898 15.6932 8.99898C13.4454 8.99898 12.4994 10.7494 12.4994 10.7494V9.3226H9.35319V19.9152H12.4994V14.3547C12.4994 12.8648 13.1852 11.9782 14.4979 11.9782C15.7046 11.9782 16.2839 12.8302 16.2839 14.3547V19.9152ZM3.65967 5.98095C3.65967 7.06037 4.52807 7.93559 5.59975 7.93559C6.67142 7.93559 7.53931 7.06037 7.53931 5.98095C7.53931 4.90153 6.67142 4.02631 5.59975 4.02631C4.52807 4.02631 3.65967 4.90153 3.65967 5.98095ZM7.25587 19.9152H3.97517V9.3226H7.25587V19.9152Z" fill="#212121"/>
</g>
<defs>
<clipPath id="clip0_116_132">
<rect width="22" height="22" fill="white" transform="translate(0.601074 0.970703)"/>
</clipPath>
</defs>
</svg>
