<svg width="20" height="21" viewBox="0 0 20 21" fill="none" xmlns="http://www.w3.org/2000/svg">
<g clip-path="url(#list-icon)">
<path fill-rule="evenodd" clip-rule="evenodd" d="M13.516 2.883H6.484C5.39635 2.883 4.35324 3.31507 3.58416 4.08416C2.81507 4.85324 2.383 5.89635 2.383 6.984V14.016C2.383 15.1037 2.81507 16.1468 3.58416 16.9158C4.35324 17.6849 5.39635 18.117 6.484 18.117H13.516C14.6036 18.1167 15.6465 17.6846 16.4156 16.9156C17.1846 16.1465 17.6167 15.1036 17.617 14.016V6.984C17.617 5.89635 17.1849 4.85324 16.4158 4.08416C15.6468 3.31507 14.6037 2.883 13.516 2.883ZM6.484 1.125C4.93001 1.12527 3.43975 1.74277 2.341 2.84171C1.24225 3.94064 0.625 5.431 0.625 6.985V14.015C0.625 15.5692 1.24239 17.0597 2.34135 18.1586C3.44032 19.2576 4.93083 19.875 6.485 19.875H13.515C15.0692 19.875 16.5597 19.2576 17.6586 18.1586C18.7576 17.0597 19.375 15.5692 19.375 14.015V6.985C19.375 5.43083 18.7576 3.94032 17.6586 2.84135C16.5597 1.74239 15.0692 1.125 13.515 1.125H6.484Z" fill="#212121"/>
<path fill-rule="evenodd" clip-rule="evenodd" d="M0.46875 6.98397C0.46928 5.38895 1.1032 3.85942 2.23115 2.73166C3.35909 1.6039 4.88873 0.970236 6.48375 0.969971H13.5157C15.1109 0.970236 16.6407 1.60404 17.7687 2.73202C18.8967 3.85999 19.5305 5.38978 19.5308 6.98497V14.017C19.5305 15.6122 18.8967 17.142 17.7687 18.2699C16.6407 19.3979 15.1109 20.0317 13.5157 20.032H6.48375C4.88855 20.0314 3.35887 19.3974 2.23109 18.2692C1.1033 17.1411 0.46975 15.6112 0.46975 14.016L0.46875 6.98397ZM6.48375 1.28097C4.97122 1.28097 3.52064 1.88182 2.45112 2.95134C1.3816 4.02086 0.78075 5.47144 0.78075 6.98397V14.016C0.78075 15.5285 1.3816 16.9791 2.45112 18.0486C3.52064 19.1181 4.97122 19.719 6.48375 19.719H13.5157C15.0283 19.719 16.4789 19.1181 17.5484 18.0486C18.6179 16.9791 19.2188 15.5285 19.2188 14.016V6.98397C19.2188 5.47144 18.6179 4.02086 17.5484 2.95134C16.4789 1.88182 15.0283 1.28097 13.5157 1.28097H6.48375ZM2.22675 6.98397C2.22702 5.85503 2.6756 4.77239 3.47389 3.97411C4.27217 3.17583 5.3548 2.72724 6.48375 2.72697H13.5157C14.6447 2.72724 15.7273 3.17583 16.5256 3.97411C17.3239 4.77239 17.7725 5.85503 17.7728 6.98397V14.016C17.7725 15.1449 17.3239 16.2275 16.5256 17.0258C15.7273 17.8241 14.6447 18.2727 13.5157 18.273H6.48375C5.3548 18.2727 4.27217 17.8241 3.47389 17.0258C2.6756 16.2275 2.22702 15.1449 2.22675 14.016V6.98397ZM6.48375 3.03997C5.43782 3.04024 4.4348 3.45585 3.69521 4.19543C2.95563 4.93502 2.54001 5.93804 2.53975 6.98397V14.016C2.53975 15.0622 2.95538 16.0657 3.69521 16.8055C4.43504 17.5453 5.43847 17.961 6.48475 17.961H13.5168C14.0348 17.961 14.5478 17.8589 15.0264 17.6607C15.5051 17.4624 15.94 17.1718 16.3063 16.8055C16.6726 16.4392 16.9632 16.0043 17.1615 15.5257C17.3597 15.047 17.4618 14.534 17.4618 14.016V6.98397C17.4618 6.46591 17.3597 5.95291 17.1615 5.47428C16.9632 4.99566 16.6726 4.56076 16.3063 4.19443C15.94 3.82811 15.5051 3.53752 15.0264 3.33927C14.5478 3.14101 14.0348 3.03897 13.5168 3.03897L6.48375 3.03997Z" fill="#212121"/>
<path d="M4.84245 10.8941L4.73145 11.0041L4.84145 11.1151L8.37545 14.6491L8.48545 14.7591L8.59545 14.6491L15.1584 8.08709L15.2694 7.97609L15.1594 7.86609L14.1494 6.85609L14.0394 6.74609L13.9294 6.85609L8.48645 12.2981L6.07245 9.88509L5.96245 9.77509L5.85145 9.88509L4.84145 10.8951L4.84245 10.8941Z" fill="#212121"/>
<path fill-rule="evenodd" clip-rule="evenodd" d="M14.038 6.52393L14.259 6.74493L15.269 7.75493L15.49 7.97493L8.48601 14.9799L4.73101 11.2259L4.51001 11.0039L4.68501 10.8289L5.96201 9.55293L8.48601 12.0769L13.818 6.74593L14.038 6.52393ZM14.038 6.96593L8.48701 12.5199L5.96001 9.99493L4.99701 10.9589L4.95101 11.0049L8.48401 14.5379L15.047 7.97593L14.037 6.96593H14.038Z" fill="#212121"/>
</g>
<defs>
<clipPath id="list-icon">
<rect width="20" height="20" fill="white" transform="translate(0 0.5)"/>
</clipPath>
</defs>
</svg>
