<svg width="64" height="64" viewBox="0 0 64 64" fill="none" xmlns="http://www.w3.org/2000/svg">
<g clip-path="url(#clip0_40_156)">
<path d="M14.6729 58.5662C9.78234 58.5662 6.08725 56.8213 3.59004 53.3302C1.19668 49.7366 0 44.7566 0 38.3917C0 31.1017 1.82098 24.6848 5.46294 19.141C9.10611 13.5959 14.6729 9.02774 22.1657 5.43408L27.1614 15.2901C22.4785 17.652 18.9404 20.3726 16.547 23.4531C14.2575 26.4297 13.1115 30.2286 13.1115 34.8487C13.4255 34.7461 13.9448 34.6954 14.6729 34.6954C18.0033 34.6954 20.8133 35.7218 23.1016 37.7746C25.4962 39.726 26.6928 42.4478 26.6928 45.9376C26.6928 49.838 25.5481 52.9197 23.2586 55.1778C20.9691 57.4359 18.1072 58.5662 14.6729 58.5662ZM51.5116 58.5662C46.621 58.5662 42.9259 56.8213 40.4287 53.3302C38.0353 49.7366 36.8386 44.7566 36.8386 38.3917C36.8386 31.1017 38.6596 24.6848 42.3028 19.141C45.9448 13.5959 51.5128 9.02774 59.0044 5.43408L64 15.2901C59.3171 17.652 55.779 20.3726 53.3857 23.4531C51.0961 26.4297 49.9514 30.2286 49.9514 34.8487C50.2629 34.7461 50.7846 34.6954 51.5116 34.6954C54.842 34.6954 57.6519 35.7218 59.9414 37.7746C62.3348 39.726 63.5315 42.4478 63.5315 45.9376C63.5315 49.838 62.3867 52.9197 60.0972 55.1778C57.8077 57.4359 54.9458 58.5662 51.5116 58.5662Z" fill="#1D1E21"/>
</g>
<defs>
<clipPath id="clip0_40_156">
<rect width="64" height="64" fill="white"/>
</clipPath>
</defs>
</svg>
