<svg width="52" height="53" viewBox="0 0 52 53" fill="none" xmlns="http://www.w3.org/2000/svg">
<circle opacity="0.2" cx="25.7202" cy="26.6012" r="25.7202" fill="#274FF5"/>
<path fill-rule="evenodd" clip-rule="evenodd" d="M28.792 23.5759C29.0849 23.8688 29.0849 24.3436 28.792 24.6365L24.5494 28.8792C24.2565 29.1721 23.7816 29.1721 23.4887 28.8792C23.1959 28.5863 23.1959 28.1114 23.4887 27.8185L27.7314 23.5759C28.0243 23.283 28.4992 23.283 28.792 23.5759Z" fill="#274FF5"/>
<path opacity="0.4" fill-rule="evenodd" clip-rule="evenodd" d="M32.2771 20.091C30.7291 18.5429 28.2192 18.5429 26.6711 20.091L25.0044 21.7577C24.7115 22.0506 24.2367 22.0506 23.9438 21.7577C23.6509 21.4648 23.6509 20.9899 23.9438 20.697L25.6104 19.0303C27.7443 16.8965 31.204 16.8965 33.3378 19.0303C35.4717 21.1642 35.4717 24.6239 33.3378 26.7577L31.6711 28.4244C31.3782 28.7173 30.9034 28.7173 30.6105 28.4244C30.3176 28.1315 30.3176 27.6566 30.6105 27.3637L32.2771 25.697C33.8252 24.149 33.8252 21.6391 32.2771 20.091Z" fill="#274FF5"/>
<path opacity="0.4" fill-rule="evenodd" clip-rule="evenodd" d="M20.0041 32.3634C21.5522 33.9114 24.0621 33.9114 25.6102 32.3634L27.2768 30.6967C27.5697 30.4038 28.0446 30.4038 28.3375 30.6967C28.6304 30.9896 28.6304 31.4645 28.3375 31.7574L26.6708 33.424C24.537 35.5579 21.0773 35.5579 18.9434 33.424C16.8096 31.2902 16.8096 27.8305 18.9434 25.6967L20.6101 24.03C20.903 23.7371 21.3779 23.7371 21.6708 24.03C21.9637 24.3229 21.9637 24.7978 21.6708 25.0907L20.0041 26.7573C18.456 28.3054 18.456 30.8153 20.0041 32.3634Z" fill="#274FF5"/>
</svg>
