<svg width="768" height="423" viewBox="0 0 768 423" fill="none" xmlns="http://www.w3.org/2000/svg">
<rect x="0.5" y="0.5" width="767" height="422" fill="#ECF0FF" stroke="#ECF0FF"/>
<rect x="65.269" y="334" width="163.173" height="89" fill="#F8D247"/>
<rect x="302.414" y="257" width="163.173" height="166" fill="#9FB4FF"/>
<rect x="539.558" y="149" width="163.173" height="274" fill="#274FF5"/>
<path d="M104.576 39.48V41.144H101.072V51H99.408V41.144H95.92V39.48H104.576ZM110.055 42.648C111.879 42.648 113.079 43.88 113.079 46.056V51H111.415V46.136C111.415 45.048 110.599 44.296 109.543 44.296C108.503 44.296 107.671 45.112 107.671 46.2V51H105.991V39.48H107.671V43.896C108.135 43.144 109.047 42.648 110.055 42.648ZM116.566 47.384C116.71 48.616 117.478 49.592 118.886 49.592C120.038 49.592 120.63 48.84 120.79 48.36H122.502C122.374 49.144 121.43 51.096 118.886 51.096C116.502 51.096 114.854 49.272 114.854 46.872C114.854 44.52 116.534 42.648 118.806 42.648C121.014 42.648 122.646 44.52 122.646 46.776C122.646 47 122.63 47.208 122.614 47.384H116.566ZM118.806 44.152C117.574 44.152 116.822 45.016 116.614 46.136H120.95C120.774 45.032 120.038 44.152 118.806 44.152ZM134.505 51.096C131.273 51.096 128.729 48.472 128.729 45.24C128.729 42.008 131.273 39.384 134.505 39.384C137.737 39.384 140.265 42.008 140.265 45.24C140.265 48.472 137.737 51.096 134.505 51.096ZM134.505 49.432C136.809 49.432 138.601 47.56 138.601 45.24C138.601 42.92 136.809 41.048 134.505 41.048C132.185 41.048 130.393 42.92 130.393 45.24C130.393 47.56 132.185 49.432 134.505 49.432ZM147.478 45.592C147.254 44.792 146.454 44.216 145.558 44.216C144.118 44.216 143.19 45.464 143.19 46.872C143.19 48.28 144.15 49.528 145.558 49.528C146.486 49.528 147.27 48.904 147.478 48.152H149.174C149.062 49.224 147.782 51.096 145.558 51.096C143.286 51.096 141.526 49.208 141.526 46.872C141.526 44.536 143.286 42.648 145.558 42.648C147.942 42.648 149.11 44.504 149.206 45.592H147.478ZM152.269 47.384C152.413 48.616 153.181 49.592 154.589 49.592C155.741 49.592 156.333 48.84 156.493 48.36H158.205C158.077 49.144 157.133 51.096 154.589 51.096C152.205 51.096 150.557 49.272 150.557 46.872C150.557 44.52 152.237 42.648 154.509 42.648C156.717 42.648 158.349 44.52 158.349 46.776C158.349 47 158.333 47.208 158.317 47.384H152.269ZM154.509 44.152C153.277 44.152 152.525 45.016 152.317 46.136H156.653C156.477 45.032 155.741 44.152 154.509 44.152ZM166.016 42.744H167.68V51H166.016V49.768C165.408 50.584 164.544 51.096 163.408 51.096C161.392 51.096 159.792 49.224 159.792 46.872C159.792 44.52 161.392 42.648 163.408 42.648C164.544 42.648 165.456 43.192 166.016 43.992V42.744ZM163.744 49.464C165.072 49.464 166.016 48.312 166.016 46.872C166.016 45.432 165.072 44.296 163.744 44.296C162.432 44.296 161.456 45.432 161.456 46.872C161.456 48.312 162.432 49.464 163.744 49.464ZM174.085 42.648C175.909 42.648 177.125 43.88 177.125 46.056V51H175.461V46.136C175.461 45.048 174.645 44.296 173.605 44.296C172.549 44.296 171.717 45.112 171.717 46.2V51H170.053V42.744H171.685V43.896C172.165 43.128 173.093 42.648 174.085 42.648ZM191.701 39.48V41.144H185.813V44.488H191.125V46.152H185.813V51H184.149V39.48H191.701ZM196.627 42.648C197.011 42.648 197.235 42.68 197.427 42.696V44.36C197.235 44.328 196.931 44.28 196.563 44.28C195.315 44.28 194.435 44.984 194.435 46.568V51H192.771V42.744H194.435V43.832C194.867 43.112 195.619 42.648 196.627 42.648ZM200.019 47.384C200.163 48.616 200.931 49.592 202.339 49.592C203.491 49.592 204.083 48.84 204.243 48.36H205.955C205.827 49.144 204.883 51.096 202.339 51.096C199.955 51.096 198.307 49.272 198.307 46.872C198.307 44.52 199.987 42.648 202.259 42.648C204.467 42.648 206.099 44.52 206.099 46.776C206.099 47 206.083 47.208 206.067 47.384H200.019ZM202.259 44.152C201.027 44.152 200.275 45.016 200.067 46.136H204.403C204.227 45.032 203.491 44.152 202.259 44.152ZM213.766 42.744H215.43V51H213.766V49.768C213.158 50.584 212.294 51.096 211.158 51.096C209.142 51.096 207.542 49.224 207.542 46.872C207.542 44.52 209.142 42.648 211.158 42.648C212.294 42.648 213.206 43.192 213.766 43.992V42.744ZM211.494 49.464C212.822 49.464 213.766 48.312 213.766 46.872C213.766 45.432 212.822 44.296 211.494 44.296C210.182 44.296 209.206 45.432 209.206 46.872C209.206 48.312 210.182 49.464 211.494 49.464ZM223.403 51L220.795 47.24L219.531 48.584V51H217.851V39.48H219.531V46.472L222.923 42.744H225.019L221.963 46.088L225.339 51H223.403ZM227.752 48.28C227.784 49.016 228.328 49.624 229.224 49.624C230.04 49.624 230.552 49.192 230.552 48.616C230.552 48.024 230.136 47.752 229.24 47.544L228.312 47.32C227.096 47.032 226.264 46.344 226.264 45.016C226.264 43.672 227.448 42.632 229.176 42.648C230.936 42.664 232.008 44.04 232.008 45.288H230.44C230.408 44.568 229.864 44.056 229.144 44.056C228.424 44.056 227.928 44.456 227.928 45C227.928 45.496 228.2 45.752 228.808 45.896L229.832 46.12C231.432 46.472 232.2 47.368 232.2 48.536C232.2 50.04 230.984 51.096 229.144 51.096C227.112 51.096 226.088 49.576 226.056 48.28H227.752Z" fill="#212121"/>
<path d="M104.576 69.48V71.144H101.072V81H99.408V71.144H95.92V69.48H104.576ZM110.055 72.648C111.879 72.648 113.079 73.88 113.079 76.056V81H111.415V76.136C111.415 75.048 110.599 74.296 109.543 74.296C108.503 74.296 107.671 75.112 107.671 76.2V81H105.991V69.48H107.671V73.896C108.135 73.144 109.047 72.648 110.055 72.648ZM116.566 77.384C116.71 78.616 117.478 79.592 118.886 79.592C120.038 79.592 120.63 78.84 120.79 78.36H122.502C122.374 79.144 121.43 81.096 118.886 81.096C116.502 81.096 114.854 79.272 114.854 76.872C114.854 74.52 116.534 72.648 118.806 72.648C121.014 72.648 122.646 74.52 122.646 76.776C122.646 77 122.63 77.208 122.614 77.384H116.566ZM118.806 74.152C117.574 74.152 116.822 75.016 116.614 76.136H120.95C120.774 75.032 120.038 74.152 118.806 74.152ZM128.681 77.144H130.393C130.441 78.568 131.321 79.48 132.729 79.48C134.089 79.48 134.761 78.632 134.761 77.768C134.761 76.92 134.137 76.328 133.177 76.072L131.817 75.704C129.945 75.192 129.017 74.024 129.017 72.584C129.017 70.808 130.521 69.384 132.649 69.384C134.905 69.384 136.185 71.176 136.185 72.92H134.521C134.505 71.832 133.705 71 132.601 71C131.401 71 130.713 71.784 130.713 72.568C130.713 73.192 131.049 73.8 132.121 74.104L133.465 74.472C135.433 74.984 136.473 76.072 136.473 77.752C136.473 79.608 135.033 81.096 132.729 81.096C130.505 81.096 128.761 79.56 128.681 77.144ZM148.017 72.744H149.713L146.913 81H145.297L144.097 77.24C143.873 76.552 143.633 75.784 143.425 75.032H143.409C143.201 75.784 142.977 76.552 142.753 77.24L141.569 81H139.953L137.169 72.744H138.865L140.081 76.472C140.321 77.16 140.561 77.992 140.769 78.696H140.785C140.977 77.96 141.201 77.16 141.425 76.472L142.609 72.744H144.225L145.425 76.472C145.649 77.16 145.905 77.992 146.097 78.712H146.113C146.305 78.008 146.561 77.16 146.785 76.472L148.017 72.744ZM152.129 77.384C152.273 78.616 153.041 79.592 154.449 79.592C155.601 79.592 156.193 78.84 156.353 78.36H158.065C157.937 79.144 156.993 81.096 154.449 81.096C152.065 81.096 150.417 79.272 150.417 76.872C150.417 74.52 152.097 72.648 154.369 72.648C156.577 72.648 158.209 74.52 158.209 76.776C158.209 77 158.193 77.208 158.177 77.384H152.129ZM154.369 74.152C153.137 74.152 152.385 75.016 152.177 76.136H156.513C156.337 75.032 155.601 74.152 154.369 74.152ZM165.875 72.744H167.539V81H165.875V79.768C165.267 80.584 164.403 81.096 163.267 81.096C161.251 81.096 159.651 79.224 159.651 76.872C159.651 74.52 161.251 72.648 163.267 72.648C164.403 72.648 165.315 73.192 165.875 73.992V72.744ZM163.603 79.464C164.931 79.464 165.875 78.312 165.875 76.872C165.875 75.432 164.931 74.296 163.603 74.296C162.291 74.296 161.315 75.432 161.315 76.872C161.315 78.312 162.291 79.464 163.603 79.464ZM173.208 79.544C173.512 79.544 173.816 79.512 174.184 79.448V80.92C173.896 81.016 173.48 81.096 172.936 81.096C171.416 81.096 170.456 80.36 170.456 78.616V74.2H169.048V72.744H170.456V70.408H172.12V72.744H174.232V74.2H172.12V78.584C172.12 79.288 172.568 79.544 173.208 79.544ZM188.44 69.48V71.144H182.376V74.408H187.848V76.072H182.376V79.336H188.44V81H180.712V69.48H188.44ZM195.493 72.744H197.269L193.989 81H192.277L188.981 72.744H190.757L192.213 76.472C192.501 77.224 192.853 78.136 193.125 78.968H193.141C193.429 78.136 193.765 77.224 194.053 76.472L195.493 72.744ZM204.203 72.744H205.867V81H204.203V79.768C203.595 80.584 202.731 81.096 201.595 81.096C199.579 81.096 197.979 79.224 197.979 76.872C197.979 74.52 199.579 72.648 201.595 72.648C202.731 72.648 203.643 73.192 204.203 73.992V72.744ZM201.931 79.464C203.259 79.464 204.203 78.312 204.203 76.872C204.203 75.432 203.259 74.296 201.931 74.296C200.619 74.296 199.643 75.432 199.643 76.872C199.643 78.312 200.619 79.464 201.931 79.464ZM215.524 69.48V81H213.86V79.736C213.268 80.664 212.372 81.096 211.252 81.096C209.316 81.096 207.636 79.304 207.636 76.872C207.636 74.44 209.316 72.648 211.252 72.648C212.372 72.648 213.332 73.224 213.86 74.008V69.48H215.524ZM211.636 79.48C212.996 79.48 213.86 78.312 213.86 76.872C213.86 75.432 212.996 74.28 211.636 74.28C210.276 74.28 209.3 75.432 209.3 76.872C209.3 78.312 210.276 79.48 211.636 79.48ZM219.051 77.384C219.195 78.616 219.963 79.592 221.371 79.592C222.523 79.592 223.115 78.84 223.275 78.36H224.987C224.859 79.144 223.915 81.096 221.371 81.096C218.987 81.096 217.339 79.272 217.339 76.872C217.339 74.52 219.019 72.648 221.291 72.648C223.499 72.648 225.131 74.52 225.131 76.776C225.131 77 225.115 77.208 225.099 77.384H219.051ZM221.291 74.152C220.059 74.152 219.307 75.016 219.099 76.136H223.435C223.259 75.032 222.523 74.152 221.291 74.152ZM230.752 72.648C231.136 72.648 231.36 72.68 231.552 72.696V74.36C231.36 74.328 231.056 74.28 230.688 74.28C229.44 74.28 228.56 74.984 228.56 76.568V81H226.896V72.744H228.56V73.832C228.992 73.112 229.744 72.648 230.752 72.648ZM234.096 78.28C234.128 79.016 234.672 79.624 235.568 79.624C236.384 79.624 236.896 79.192 236.896 78.616C236.896 78.024 236.48 77.752 235.584 77.544L234.656 77.32C233.44 77.032 232.608 76.344 232.608 75.016C232.608 73.672 233.792 72.632 235.52 72.648C237.28 72.664 238.352 74.04 238.352 75.288H236.784C236.752 74.568 236.208 74.056 235.488 74.056C234.768 74.056 234.272 74.456 234.272 75C234.272 75.496 234.544 75.752 235.152 75.896L236.176 76.12C237.776 76.472 238.544 77.368 238.544 78.536C238.544 80.04 237.328 81.096 235.488 81.096C233.456 81.096 232.432 79.576 232.4 78.28H234.096Z" fill="#212121"/>
<path d="M104.576 101.48V103.144H101.072V113H99.408V103.144H95.92V101.48H104.576ZM110.055 104.648C111.879 104.648 113.079 105.88 113.079 108.056V113H111.415V108.136C111.415 107.048 110.599 106.296 109.543 106.296C108.503 106.296 107.671 107.112 107.671 108.2V113H105.991V101.48H107.671V105.896C108.135 105.144 109.047 104.648 110.055 104.648ZM116.566 109.384C116.71 110.616 117.478 111.592 118.886 111.592C120.038 111.592 120.63 110.84 120.79 110.36H122.502C122.374 111.144 121.43 113.096 118.886 113.096C116.502 113.096 114.854 111.272 114.854 108.872C114.854 106.52 116.534 104.648 118.806 104.648C121.014 104.648 122.646 106.52 122.646 108.776C122.646 109 122.63 109.208 122.614 109.384H116.566ZM118.806 106.152C117.574 106.152 116.822 107.016 116.614 108.136H120.95C120.774 107.032 120.038 106.152 118.806 106.152ZM133.801 101.48C135.881 101.48 137.385 103.272 137.385 105.08C137.385 106.888 135.881 108.68 133.801 108.68H130.985V113H129.321V101.48H133.801ZM133.785 107.016C134.889 107.016 135.705 106.088 135.705 105.08C135.705 104.056 134.889 103.144 133.785 103.144H130.985V107.016H133.785ZM142.057 113.096C139.785 113.096 138.057 111.208 138.057 108.872C138.057 106.536 139.785 104.648 142.057 104.648H142.073C144.345 104.648 146.073 106.536 146.073 108.872C146.073 111.208 144.345 113.096 142.073 113.096H142.057ZM142.057 111.464H142.073C143.433 111.464 144.409 110.28 144.409 108.872C144.409 107.496 143.417 106.28 142.073 106.28H142.057C140.697 106.296 139.721 107.464 139.721 108.872C139.721 110.28 140.697 111.464 142.057 111.464ZM151.511 113.096C149.239 113.096 147.511 111.208 147.511 108.872C147.511 106.536 149.239 104.648 151.511 104.648H151.527C153.799 104.648 155.527 106.536 155.527 108.872C155.527 111.208 153.799 113.096 151.527 113.096H151.511ZM151.511 111.464H151.527C152.887 111.464 153.863 110.28 153.863 108.872C153.863 107.496 152.871 106.28 151.527 106.28H151.511C150.151 106.296 149.175 107.464 149.175 108.872C149.175 110.28 150.151 111.464 151.511 111.464ZM158.999 101.48V113H157.319V101.48H158.999ZM171.364 113.096C168.132 113.096 165.588 110.472 165.588 107.24C165.588 104.008 168.132 101.384 171.364 101.384C173.988 101.384 175.956 103.24 176.436 105.32H174.676C174.244 103.992 172.756 103.048 171.364 103.048C169.044 103.048 167.252 104.92 167.252 107.24C167.252 109.56 169.044 111.432 171.364 111.432C172.884 111.432 174.212 110.568 174.724 109.144H176.484C175.956 111.368 174.052 113.096 171.364 113.096ZM182.096 104.648C182.48 104.648 182.704 104.68 182.896 104.696V106.36C182.704 106.328 182.4 106.28 182.032 106.28C180.784 106.28 179.904 106.984 179.904 108.568V113H178.24V104.744H179.904V105.832C180.336 105.112 181.088 104.648 182.096 104.648ZM185.369 103.576C184.697 103.576 184.169 103.048 184.169 102.376C184.169 101.704 184.697 101.176 185.369 101.176C186.057 101.176 186.601 101.704 186.601 102.376C186.601 103.048 186.041 103.576 185.369 103.576ZM186.185 113H184.521V104.744H186.185V113ZM189.785 109.384C189.929 110.616 190.697 111.592 192.105 111.592C193.257 111.592 193.849 110.84 194.009 110.36H195.721C195.593 111.144 194.649 113.096 192.105 113.096C189.721 113.096 188.073 111.272 188.073 108.872C188.073 106.52 189.753 104.648 192.025 104.648C194.233 104.648 195.865 106.52 195.865 108.776C195.865 109 195.849 109.208 195.833 109.384H189.785ZM192.025 106.152C190.793 106.152 190.041 107.016 189.833 108.136H194.169C193.993 107.032 193.257 106.152 192.025 106.152ZM201.487 104.648C201.871 104.648 202.095 104.68 202.287 104.696V106.36C202.095 106.328 201.791 106.28 201.423 106.28C200.175 106.28 199.295 106.984 199.295 108.568V113H197.631V104.744H199.295V105.832C199.727 105.112 200.479 104.648 201.487 104.648Z" fill="#212121"/>
<path d="M127.724 310.112L125.468 312.112H129.948V314.016H122.476V312.336L126.508 308.848C127.484 308 128.092 307.2 128.092 306.256C128.092 305.152 127.34 304.432 126.22 304.432C125.004 304.432 124.156 305.424 124.204 306.736H122.3C122.284 304.24 123.868 302.624 126.236 302.624C128.476 302.624 130.012 303.952 130.012 306.16C130.012 307.824 128.892 309.104 127.724 310.112ZM139.124 309.344V311.168H137.492V314H135.604V311.168H130.548V309.344L135.492 302.72H137.492V309.344H139.124ZM132.612 309.344H135.604V305.376L132.612 309.344ZM141.792 314.096C141.04 314.096 140.4 313.488 140.4 312.72C140.4 311.952 141.008 311.344 141.792 311.344C142.608 311.344 143.152 311.968 143.152 312.72C143.152 313.52 142.528 314.096 141.792 314.096ZM152.922 310.176C152.922 312.368 151.354 314.096 148.826 314.096C146.09 314.096 144.746 311.84 144.746 308.672C144.746 305.168 146.058 302.624 148.97 302.624C151.706 302.624 152.586 304.88 152.666 305.824H150.778C150.698 305.344 150.25 304.4 149.002 304.4C147.562 304.4 146.65 305.84 146.65 307.808C146.954 307.296 147.898 306.512 149.29 306.512C151.354 306.512 152.922 308.144 152.922 310.176ZM151.018 310.272C151.018 309.152 150.154 308.24 148.97 308.24C147.754 308.24 146.874 309.152 146.874 310.272C146.874 311.424 147.706 312.32 148.954 312.32C150.138 312.32 151.018 311.424 151.018 310.272ZM156.52 302.416C157.416 302.416 158.093 302.731 158.552 303.36C159.021 303.979 159.256 304.853 159.256 305.984C159.256 307.115 159.037 308 158.6 308.64C158.163 309.269 157.469 309.584 156.52 309.584C155.933 309.584 155.437 309.44 155.032 309.152C154.637 308.864 154.339 308.453 154.136 307.92C153.933 307.376 153.832 306.731 153.832 305.984C153.832 304.853 154.045 303.979 154.472 303.36C154.899 302.731 155.581 302.416 156.52 302.416ZM156.536 304.048C156.28 304.048 156.093 304.208 155.976 304.528C155.859 304.848 155.8 305.339 155.8 306C155.8 306.651 155.859 307.141 155.976 307.472C156.093 307.803 156.28 307.968 156.536 307.968C156.792 307.968 156.979 307.803 157.096 307.472C157.224 307.141 157.288 306.651 157.288 306C157.288 305.339 157.224 304.848 157.096 304.528C156.979 304.208 156.792 304.048 156.536 304.048ZM164.632 302.576L158.296 314H156.424L162.76 302.576H164.632ZM164.52 306.976C165.117 306.976 165.619 307.12 166.024 307.408C166.429 307.685 166.733 308.091 166.936 308.624C167.149 309.147 167.256 309.787 167.256 310.544C167.256 311.675 167.037 312.56 166.6 313.2C166.163 313.829 165.469 314.144 164.52 314.144C163.933 314.144 163.437 314 163.032 313.712C162.637 313.424 162.339 313.013 162.136 312.48C161.933 311.936 161.832 311.291 161.832 310.544C161.832 309.413 162.045 308.539 162.472 307.92C162.899 307.291 163.581 306.976 164.52 306.976ZM164.536 308.608C164.28 308.608 164.093 308.768 163.976 309.088C163.859 309.408 163.8 309.899 163.8 310.56C163.8 311.211 163.859 311.701 163.976 312.032C164.093 312.363 164.28 312.528 164.536 312.528C164.792 312.528 164.979 312.368 165.096 312.048C165.224 311.717 165.288 311.221 165.288 310.56C165.288 309.899 165.224 309.408 165.096 309.088C164.979 308.768 164.792 308.608 164.536 308.608Z" fill="#212121"/>
<path d="M367.956 232.344V234.168H366.324V237H364.436V234.168H359.38V232.344L364.324 225.72H366.324V232.344H367.956ZM361.444 232.344H364.436V228.376L361.444 232.344ZM377.456 232.344V234.168H375.824V237H373.936V234.168H368.88V232.344L373.824 225.72H375.824V232.344H377.456ZM370.944 232.344H373.936V228.376L370.944 232.344ZM380.124 237.096C379.372 237.096 378.732 236.488 378.732 235.72C378.732 234.952 379.34 234.344 380.124 234.344C380.94 234.344 381.484 234.968 381.484 235.72C381.484 236.52 380.86 237.096 380.124 237.096ZM388.134 233.112L385.878 235.112H390.358V237.016H382.886V235.336L386.918 231.848C387.894 231 388.502 230.2 388.502 229.256C388.502 228.152 387.75 227.432 386.63 227.432C385.414 227.432 384.566 228.424 384.614 229.736H382.71C382.694 227.24 384.278 225.624 386.646 225.624C388.886 225.624 390.422 226.952 390.422 229.16C390.422 230.824 389.302 232.104 388.134 233.112ZM394.117 225.416C395.013 225.416 395.69 225.731 396.149 226.36C396.618 226.979 396.853 227.853 396.853 228.984C396.853 230.115 396.634 231 396.197 231.64C395.76 232.269 395.066 232.584 394.117 232.584C393.53 232.584 393.034 232.44 392.629 232.152C392.234 231.864 391.936 231.453 391.733 230.92C391.53 230.376 391.429 229.731 391.429 228.984C391.429 227.853 391.642 226.979 392.069 226.36C392.496 225.731 393.178 225.416 394.117 225.416ZM394.133 227.048C393.877 227.048 393.69 227.208 393.573 227.528C393.456 227.848 393.397 228.339 393.397 229C393.397 229.651 393.456 230.141 393.573 230.472C393.69 230.803 393.877 230.968 394.133 230.968C394.389 230.968 394.576 230.803 394.693 230.472C394.821 230.141 394.885 229.651 394.885 229C394.885 228.339 394.821 227.848 394.693 227.528C394.576 227.208 394.389 227.048 394.133 227.048ZM402.229 225.576L395.893 237H394.021L400.357 225.576H402.229ZM402.117 229.976C402.714 229.976 403.216 230.12 403.621 230.408C404.026 230.685 404.33 231.091 404.533 231.624C404.746 232.147 404.853 232.787 404.853 233.544C404.853 234.675 404.634 235.56 404.197 236.2C403.76 236.829 403.066 237.144 402.117 237.144C401.53 237.144 401.034 237 400.629 236.712C400.234 236.424 399.936 236.013 399.733 235.48C399.53 234.936 399.429 234.291 399.429 233.544C399.429 232.413 399.642 231.539 400.069 230.92C400.496 230.291 401.178 229.976 402.117 229.976ZM402.133 231.608C401.877 231.608 401.69 231.768 401.573 232.088C401.456 232.408 401.397 232.899 401.397 233.56C401.397 234.211 401.456 234.701 401.573 235.032C401.69 235.363 401.877 235.528 402.133 235.528C402.389 235.528 402.576 235.368 402.693 235.048C402.821 234.717 402.885 234.221 402.885 233.56C402.885 232.899 402.821 232.408 402.693 232.088C402.576 231.768 402.389 231.608 402.133 231.608Z" fill="#212121"/>
<path d="M603.997 119.576L599.389 129H597.277L601.901 119.576H596.365V117.72H603.997V119.576ZM604.393 123.352C604.393 119.992 606.009 117.624 608.937 117.624C611.849 117.624 613.449 119.992 613.449 123.352C613.449 126.712 611.849 129.096 608.937 129.096C606.009 129.096 604.393 126.712 604.393 123.352ZM606.313 123.352C606.313 125.672 607.225 127.256 608.937 127.256C610.649 127.256 611.545 125.672 611.545 123.352C611.545 121.032 610.649 119.464 608.937 119.464C607.225 119.464 606.313 121.032 606.313 123.352ZM616.363 129.096C615.611 129.096 614.971 128.488 614.971 127.72C614.971 126.952 615.579 126.344 616.363 126.344C617.179 126.344 617.723 126.968 617.723 127.72C617.723 128.52 617.099 129.096 616.363 129.096ZM622.964 127.288C624.164 127.288 625.044 126.36 625.044 125.192C625.044 123.48 623.172 122.536 621.524 123.608L620.532 122.248L624.212 119.576H619.556V117.72H626.612V119.576L623.444 121.928C625.412 121.928 626.964 123.24 626.964 125.208C626.964 127.464 625.284 129.096 622.932 129.096C620.66 129.096 618.964 127.352 618.964 125.432H620.884C620.964 126.472 621.844 127.288 622.964 127.288ZM630.653 117.416C631.549 117.416 632.226 117.731 632.685 118.36C633.154 118.979 633.389 119.853 633.389 120.984C633.389 122.115 633.17 123 632.733 123.64C632.295 124.269 631.602 124.584 630.653 124.584C630.066 124.584 629.57 124.44 629.165 124.152C628.77 123.864 628.471 123.453 628.269 122.92C628.066 122.376 627.965 121.731 627.965 120.984C627.965 119.853 628.178 118.979 628.605 118.36C629.031 117.731 629.714 117.416 630.653 117.416ZM630.669 119.048C630.413 119.048 630.226 119.208 630.109 119.528C629.991 119.848 629.933 120.339 629.933 121C629.933 121.651 629.991 122.141 630.109 122.472C630.226 122.803 630.413 122.968 630.669 122.968C630.925 122.968 631.111 122.803 631.229 122.472C631.357 122.141 631.421 121.651 631.421 121C631.421 120.339 631.357 119.848 631.229 119.528C631.111 119.208 630.925 119.048 630.669 119.048ZM638.765 117.576L632.429 129H630.557L636.893 117.576H638.765ZM638.653 121.976C639.25 121.976 639.751 122.12 640.157 122.408C640.562 122.685 640.866 123.091 641.069 123.624C641.282 124.147 641.389 124.787 641.389 125.544C641.389 126.675 641.17 127.56 640.733 128.2C640.295 128.829 639.602 129.144 638.653 129.144C638.066 129.144 637.57 129 637.165 128.712C636.77 128.424 636.471 128.013 636.269 127.48C636.066 126.936 635.965 126.291 635.965 125.544C635.965 124.413 636.178 123.539 636.605 122.92C637.031 122.291 637.714 121.976 638.653 121.976ZM638.669 123.608C638.413 123.608 638.226 123.768 638.109 124.088C637.991 124.408 637.933 124.899 637.933 125.56C637.933 126.211 637.991 126.701 638.109 127.032C638.226 127.363 638.413 127.528 638.669 127.528C638.925 127.528 639.111 127.368 639.229 127.048C639.357 126.717 639.421 126.221 639.421 125.56C639.421 124.899 639.357 124.408 639.229 124.088C639.111 123.768 638.925 123.608 638.669 123.608Z" fill="#212121"/>
<rect x="65.269" y="34" width="21.7564" height="20" fill="#F8D247"/>
<rect x="65.269" y="66" width="21.7564" height="20" fill="#9FB4FF"/>
<rect x="65.269" y="98" width="21.7564" height="20" fill="#294AC6"/>
</svg>
