<svg width="52" height="52" viewBox="0 0 52 52" fill="none" xmlns="http://www.w3.org/2000/svg">
<circle opacity="0.2" cx="25.7202" cy="26.1607" r="25.7202" fill="#274FF5"/>
<path opacity="0.4" d="M19.6566 21.3473C18.1734 19.3696 19.5845 16.5473 22.0566 16.5473H30.0566C32.5288 16.5473 33.9399 19.3696 32.4566 21.3473L29.9066 24.7473C29.1066 25.8139 29.1066 27.2806 29.9066 28.3473L32.4566 31.7473C33.9399 33.725 32.5288 36.5473 30.0566 36.5473H22.0566C19.5845 36.5473 18.1734 33.725 19.6566 31.7473L22.2066 28.3473C23.0066 27.2806 23.0066 25.8139 22.2066 24.7473L19.6566 21.3473Z" fill="#274FF5"/>
<path d="M25.2756 29.5234C25.676 29.023 26.4371 29.023 26.8374 29.5234L28.7568 31.9226C29.2806 32.5774 28.8144 33.5473 27.9759 33.5473H24.1371C23.2986 33.5473 22.8325 32.5774 23.3563 31.9226L25.2756 29.5234Z" fill="#274FF5"/>
</svg>
